<?xml version="1.0" standalone="no"?>
<!DOCTYPE svg PUBLIC "-//W3C//DTD SVG 20010904//EN"
 "http://www.w3.org/TR/2001/REC-SVG-20010904/DTD/svg10.dtd">
<svg version="1.0" xmlns="http://www.w3.org/2000/svg"
 width="480.000000pt" height="480.000000pt" viewBox="0 0 480.000000 480.000000"
 preserveAspectRatio="xMidYMid meet">
<metadata>
Created by potrace 1.14, written by Peter Selinger 2001-2017
</metadata>
<g transform="translate(0.000000,480.000000) scale(0.100000,-0.100000)"
fill="#000000" stroke="none">
<path d="M1640 3920 l0 -190 -190 0 -190 0 0 -385 0 -385 190 0 190 0 0 -190
0 -190 385 0 385 0 0 -190 0 -190 -192 -2 -193 -3 -3 -192 -2 -193 195 0 195
0 0 -190 0 -190 -385 0 -385 0 0 -195 0 -195 190 0 190 0 0 -110 0 -110 390 0
390 0 0 110 0 110 190 0 190 0 0 195 0 195 -190 0 -190 0 -2 193 -3 192 -192
3 -193 2 0 185 0 185 385 0 385 0 0 190 0 190 190 0 190 0 0 580 0 580 -190 0
-190 0 0 190 0 190 -770 0 -770 0 0 -190z"/>
</g>
</svg>
