<?xml version="1.0" encoding="UTF-8"?>
<svg width="1200pt" height="1200pt" version="1.1" viewBox="0 0 1200 1200" xmlns="http://www.w3.org/2000/svg">
 <g>
  <path d="m1068 1056h-31.102v-375.33c0-6.6328-5.3672-12-12-12h-23.66v-390.15c0-0.55469-0.24219-1.0312-0.31641-1.5664-0.10938-0.82812-0.20312-1.6289-0.48828-2.4297-0.28906-0.8125-0.73047-1.5078-1.1797-2.2266-0.27734-0.45312-0.38672-0.96094-0.73438-1.3828l-120.01-146.52c-2.2617-2.7539-5.625-4.3711-9.1992-4.3945h-0.082032c-3.5391 0-6.8906 1.5586-9.1758 4.2656l-123.59 146.52c-0.36719 0.4375-0.49219 0.96875-0.78906 1.4375-0.45703 0.71875-0.91797 1.4023-1.2148 2.2148-0.29297 0.80859-0.38281 1.6211-0.49609 2.4609-0.078125 0.55469-0.32812 1.0469-0.32812 1.6211v151.36h-319.75c-3.1875 0-6.2344 1.2656-8.4844 3.5156l-238.77 238.78c-1.1133 1.1094-1.9961 2.4414-2.6055 3.918-0.60547 1.4648-0.92578 3.0195-0.92578 4.582v375.33h-31.102c-6.6328 0-12 5.3672-12 12s5.3672 12 12 12h936c6.6328 0 12-5.3672 12-12s-5.3672-12-12-12zm-310.36-387.33v-378.15h219.6v378.15zm111.45-517.9 94.812 115.75h-192.44zm-450.23 303.11h314.79v214.79h-529.57zm-231.75 238.79h825.8v363.33h-54.059v-185.92c0-6.6328-5.3672-12-12-12h-163.48c-6.6328 0-12 5.3672-12 12v185.92h-584.26zm747.74 363.33h-139.48v-173.92h139.48z"/>
  <path d="m902.87 540.84c-6.6328 0-12 5.3672-12 12v50.156c0 6.6328 5.3672 12 12 12 6.6328 0 12-5.3672 12-12v-50.156c0-6.6328-5.3672-12-12-12z"/>
  <path d="m832 540.84c-6.6328 0-12 5.3672-12 12v50.156c0 6.6328 5.3672 12 12 12 6.6328 0 12-5.3672 12-12v-50.156c0-6.6328-5.3672-12-12-12z"/>
  <path d="m902.87 439.92c-6.6328 0-12 5.3672-12 12v50.156c0 6.6328 5.3672 12 12 12 6.6328 0 12-5.3672 12-12v-50.156c0-6.6328-5.3672-12-12-12z"/>
  <path d="m832 439.92c-6.6328 0-12 5.3672-12 12v50.156c0 6.6328 5.3672 12 12 12 6.6328 0 12-5.3672 12-12v-50.156c0-6.6328-5.3672-12-12-12z"/>
  <path d="m902.87 339c-6.6328 0-12 5.3672-12 12v50.156c0 6.6328 5.3672 12 12 12 6.6328 0 12-5.3672 12-12v-50.156c0-6.6328-5.3672-12-12-12z"/>
  <path d="m832 339c-6.6328 0-12 5.3672-12 12v50.156c0 6.6328 5.3672 12 12 12 6.6328 0 12-5.3672 12-12v-50.156c0-6.6328-5.3672-12-12-12z"/>
  <path d="m646.31 812c-26.988 0-48.949 21.961-48.949 48.949v79.641c0 6.6328 5.3672 12 12 12h73.898c6.6328 0 12-5.3672 12-12v-79.641c0-26.988-21.961-48.949-48.949-48.949zm24.949 116.59h-49.898v-67.641c0-13.758 11.191-24.949 24.949-24.949s24.949 11.191 24.949 24.949z"/>
  <path d="m483.98 812c-27 0-48.961 21.961-48.961 48.949v79.641c0 6.6328 5.3672 12 12 12h73.91c6.6328 0 12-5.3672 12-12v-79.641c0-26.988-21.961-48.949-48.949-48.949zm24.949 116.59h-49.91v-67.641c0-13.758 11.203-24.949 24.961-24.949s24.949 11.191 24.949 24.949z"/>
  <path d="m321.64 812c-26.988 0-48.949 21.961-48.949 48.949v79.641c0 6.6328 5.3672 12 12 12h73.898c6.6328 0 12-5.3672 12-12v-79.641c0-26.988-21.961-48.949-48.949-48.949zm24.949 116.59h-49.898v-67.641c0-13.758 11.191-24.949 24.949-24.949 13.758 0 24.949 11.191 24.949 24.949z"/>
  <path d="m238.75 357.49c65.473 0 118.75-53.273 118.75-118.75s-53.273-118.75-118.75-118.75-118.75 53.273-118.75 118.75 53.273 118.75 118.75 118.75zm0-213.49c52.242 0 94.746 42.504 94.746 94.746 0 52.242-42.504 94.746-94.746 94.746-52.242 0-94.746-42.504-94.746-94.746 0-52.242 42.504-94.746 94.746-94.746z"/>
 </g>
</svg>
