<svg version="1.1" viewBox="0 0 1200 1200" xmlns="http://www.w3.org/2000/svg">
 <g>
  <path d="m581.5 1097.6c-20.137 0-39.047-7.8125-53.258-21.996l-410.21-410.2c-29.375-29.375-29.375-77.172 0-106.54l428.88-428.89c14.199-14.211 33.109-22.023 53.258-22.023 20.137 0 39.047 7.8125 53.258 22.02l410.21 410.23c14.184 14.184 21.996 33.098 21.996 53.242 0 20.172-7.8125 39.086-21.996 53.258l-428.88 428.89c-14.199 14.172-33.109 21.996-53.258 21.996zm18.672-983.64c-18.539 0-35.953 7.1992-49.008 20.258l-428.88 428.89c-27.023 27.023-27.023 71.016 0 98.051l410.21 410.2c13.066 13.055 30.48 20.242 49.008 20.242 18.539 0 35.953-7.1875 49.008-20.242l428.87-428.89c13.055-13.043 20.242-30.445 20.242-49.008 0-18.539-7.1875-35.953-20.242-48.996l-410.2-410.24c-13.066-13.059-30.48-20.258-49.008-20.258z"/>
  <path d="m581.5 1077.9c-14.867 0-28.812-5.7617-39.266-16.223l-410.23-410.2c-10.453-10.453-16.211-24.395-16.211-39.266 0-14.879 5.7617-28.824 16.211-39.277l428.88-428.88c10.465-10.453 24.406-16.211 39.277-16.211 14.867 0 28.812 5.7617 39.266 16.211l410.2 410.21c21.66 21.66 21.66 56.914 0 78.562l-428.86 428.86c-10.453 10.453-24.398 16.211-39.266 16.211zm-436.77-492.24c-7.0547 7.0547-10.945 16.488-10.945 26.555 0 10.066 3.8867 19.488 10.945 26.543l410.23 410.2c14.102 14.113 38.977 14.102 53.074 0l428.86-428.86c14.641-14.641 14.641-38.473 0-53.113l-410.18-410.21c-7.0547-7.0547-16.488-10.945-26.543-10.945-10.066 0-19.5 3.8867-26.555 10.945"/>
  <path d="m835.41 662.81c-2.832-4.0547-2.832-10.715 0-14.762l3.3945-4.8008c2.832-4.0664 2.0508-9.9961-1.7383-13.199l-4.5117-3.7656c-3.793-3.1914-5.5078-9.5742-3.8047-14.258l2.0039-5.5547c1.6914-4.6445-0.58984-10.176-5.0742-12.266l-5.3516-2.4727c-4.4766-2.0898-7.8008-7.8359-7.3672-12.781l0.52734-5.8906c0.42187-4.9219-3.2148-9.6484-8.0898-10.512l-5.8086-1.0078c-4.8711-0.875-9.5625-5.5547-10.43-10.441l-1.0195-5.8086c-0.85156-4.8945-5.5938-8.5078-10.535-8.0898l-5.8789 0.52734c-4.9219 0.42188-10.668-2.8906-12.758-7.3906l-2.4961-5.3398-2.6992-28.57s-28.5 14.316-30-45c-0.73047-28.5 9-36 9-52.5s-22.5-39-22.5-39v-15s12 0 16.5-3 18-19.5 16.5-25.5-9 4.5-16.5 4.5-12 4.5-16.5-6-4.5-21-10.5-22.5-15-10.5-21-10.5-12 7.5-13.5 12-4.5 19.5-9 22.5-30 15-30 15 19.5 4.5 24 4.5 9 12 9 18 9 18 16.5 21v15s-16.5 3-21 10.5-9 36-9 46.5c0 0-33 1.5-43.5 4.5s-29.641 2.6289-29.641 2.6289l-11.258-11.242c-3.5039-3.5273-9.2031-3.5273-12.707 0-3.5273 3.5039-3.5273 9.2031 0 12.719l23.629 23.641-26.242 26.258h-149.28v-52.5h-24v52.5c-15.602-0.011719-23.387-0.011719-39-0.011719-30 0-39 18-31.5 48 7.0078 28.078 29.773 116.61 32.652 127.81-19.895 10.379-33.613 30.961-33.613 54.926 0 34.367 27.852 62.242 62.207 62.242 34.355 0 62.219-27.863 62.219-62.242 0-23.09-12.73-42.996-31.414-53.734h0.94922v-9h43.5l21.758 21.742h101.89c-0.023437 1.2734-0.21484 2.5078-0.63672 3.6484l-2.0156 5.5547c-1.6914 4.668 0.60156 10.176 5.0742 12.254l5.3633 2.4727c4.4883 2.125 7.7891 7.8594 7.3672 12.781l-0.51562 5.8906c-0.43359 4.9453 3.2031 9.6719 8.0742 10.512l5.8086 1.0312c4.8711 0.85156 9.5625 5.5547 10.43 10.441l1.0195 5.7969c0.86328 4.8711 5.6055 8.5078 10.523 8.0742l5.8789-0.53906c4.9219-0.42188 10.691 2.9141 12.77 7.3906l2.4961 5.3633c2.0898 4.4766 7.6094 6.7422 12.254 5.0625l5.5547-2.0156c4.668-1.6914 11.062 0.023438 14.258 3.8164l3.7812 4.5234c3.1797 3.7812 9.1094 4.5703 13.164 1.7383l4.8242-3.3945c4.0547-2.832 10.691-2.832 14.746 0l4.8477 3.3945c4.0547 2.832 9.9609 2.0508 13.152-1.7383l3.793-4.5234c3.1797-3.793 9.5898-5.5078 14.23-3.8164l5.543 2.0156c4.6797 1.6914 10.188-0.58984 12.266-5.0625l2.4961-5.3633c2.1016-4.4766 7.8359-7.8125 12.758-7.3906l5.8789 0.53906c4.9453 0.43359 9.6836-3.2031 10.535-8.0742l1.0195-5.7969c0.86328-4.8828 5.5547-9.5898 10.43-10.441l5.8086-1.0312c4.8711-0.83984 8.5078-5.5664 8.0898-10.512l-0.52734-5.8906c-0.43359-4.9219 2.8906-10.668 7.3672-12.781l5.3516-2.4727c4.4883-2.0898 6.7578-7.5977 5.0742-12.254l-2.0039-5.5547c-1.7031-4.6328 0.011719-11.062 3.8047-14.23l4.5234-3.793c3.7812-3.1914 4.5703-9.0977 1.7383-13.164zm-201.36-137.81-2.4961 5.3398c-2.0898 4.5-7.8477 7.8125-12.77 7.3906l-5.8789-0.52734c-1.7031-0.15625-39.145-15.984-40.645-15.277l-2.4492-14.832 15.203-15.191 16.117 16.129c3.5156 3.5039 9.2266 3.5039 12.73 0 3.5273-3.5156 3.5273-9.2148 0-12.719l-16.5-16.5 1.8945-9.3828h42s-1.5 25.5 1.5 31.5c9.7305 19.453 4.4023 12.492 4.8008 19.453l-1.2617-0.44531c-4.6367-1.707-10.156 0.58594-12.246 5.0625z" fill-rule="evenodd"/>
 </g>
</svg>
