<?xml version="1.0" encoding="UTF-8"?>
<svg width="1200pt" height="1200pt" version="1.1" viewBox="0 0 1200 1200" xmlns="http://www.w3.org/2000/svg">
 <g>
  <path fill="#333" d="m1125 918.75h-96.414c-8.3828-32.27-37.48-56.25-72.336-56.25v-131.74c15.711 11.906 35.062 19.238 56.25 19.238 51.695 0 93.75-42.055 93.75-93.75 0-5.8672-0.60156-11.773-1.8008-17.68 24.582-17.422 39.301-45.359 39.301-76.07 0-26.457-10.949-50.945-30.039-68.477 7.3516-13.574 11.289-28.703 11.289-44.023 0-23.27-8.7383-45.414-24.336-62.551 3.7109-10.145 5.5859-20.586 5.5859-31.199 0-48-36.242-87.676-82.801-93.113-14.531-34.105-48.094-56.887-85.949-56.887s-71.418 22.781-85.949 56.887c-46.559 5.4375-82.801 45.113-82.801 93.113 0 10.613 1.875 21.055 5.5859 31.199-9.8242 10.781-16.539 23.664-20.457 37.445-22.949-19.613-49.93-31.145-78.879-31.145-35.699 0-68.477 17.289-94.258 46.031-2.3984-25.125-13.574-49.125-31.5-67.051l-53.98-53.98h85.988v-37.762c0-17.586-8.7578-34.367-23.418-44.867-67.82-48.602-122.53-114.13-158.18-189.54-8.1172-17.18-24.77-27.828-43.406-27.828s-35.289 10.648-43.406 27.824c-35.625 75.414-90.336 140.96-158.2 189.54-14.641 10.5-23.398 27.281-23.398 44.871v37.762h85.988l-53.98 53.98c-20.344 20.344-32.008 48.508-32.008 77.27v18.75h85.988l-53.98 53.98c-20.344 20.344-32.008 48.508-32.008 77.27v18.75h206.25v75c-48 0-87.676 36.242-93.113 82.801-34.105 14.531-56.887 48.094-56.887 85.949 0 20.719 6.918 40.633 18.695 56.25-30.996 0.039062-56.195 25.258-56.195 56.25 0 10.352-8.3984 18.75-18.75 18.75h-56.25c-31.012 0-56.25 25.238-56.25 56.25s25.238 56.25 56.25 56.25h97.199c-2.0977 5.8867-3.4492 12.148-3.4492 18.75 0 31.012 25.238 56.25 56.25 56.25h731.25c31.012 0 56.25-25.238 56.25-56.25s-25.238-56.25-56.25-56.25h-56.25c-10.352 0-18.75-8.3984-18.75-18.75s8.3984-18.75 18.75-18.75h225c31.012 0 56.25-25.238 56.25-56.25s-25.238-56.25-56.25-56.25zm-136.69 0h-251.53c4.4258-7.4258 11.117-13.461 19.727-16.461l13.012-4.5391-0.44922-13.781c-0.039062-1.1992-0.17187-2.3633-0.32031-2.7188 0-31.012 25.238-56.25 56.25-56.25 20.023 0 38.699 11.062 48.75 28.855l4.4453 7.8945 8.9609 1.4062c14.438 2.2891 26.25 12.918 30.094 27.113l5.5117 20.363 19.574-7.875c18.039-7.2031 36.957 1.1602 45.977 15.992zm-294.56-114.28c41.812-7.2188 78.242-38.156 102.07-82.742 17.344 17.547 41.215 28.273 66.676 28.273 21.188 0 40.539-7.332 56.25-19.238v104.85c-5.3242-3.1133-10.914-5.8125-16.949-7.5391-17.438-25.238-46.125-40.574-76.801-40.574-48.77 0-88.949 37.426-93.355 85.051-17.625 10.051-30.355 26.793-35.438 46.199h-2.457zm114.92-397.99 12.168-9.8242-7.4805-13.727c-4.707-8.6797-7.1055-17.66-7.1055-26.68 0-31.012 25.238-56.25 55.031-56.305l18.207 0.9375 3.75-14.738c6.3555-24.957 28.688-42.395 54.262-42.395s47.906 17.438 54.281 42.395l3.75 14.738 15.227-0.63672c0.99219-0.039063 1.9844-0.15234 1.7422-0.24609 31.012 0 56.25 25.238 56.25 56.25 0 9.0195-2.3984 18-7.1055 26.664l-7.4805 13.727 12.168 9.8242c13.461 10.871 21.168 26.734 21.168 43.535 0 16.648-7.4062 28.836-13.613 36.148l-14.344 16.895 19.051 11.324c17.305 10.352 27.656 28.332 27.656 48.133 0 21.582-12.227 40.93-31.949 50.438l-15.43 7.4609 6.0547 16.031c2.5508 6.75 3.8242 13.406 3.8242 19.82 0 31.012-25.238 56.25-56.25 56.25s-56.25-25.238-56.25-56.25v-49.648l70.895-88.633-29.305-23.438-41.59 51.992v-190.27h-37.5v115.27l-41.605-51.992-29.305 23.438 70.91 88.633v124.65c0 31.012-25.238 56.25-56.25 56.25-21.055 0-40.352-12.133-49.914-30.582 7.9531-25.145 12.414-52.816 12.414-81.918 0-52.105-14.23-99.617-37.5-135.96v-14.043c0-16.801 7.707-32.664 21.168-43.52zm-133.67 24.77c62.043 0 112.5 75.695 112.5 168.75 0 83.457-40.633 152.76-93.75 166.22v-140.87l70.895-88.633-29.305-23.438-41.59 51.992v-59.023h-37.5v144.32l-40.648-60.977-31.199 20.793 71.848 107.79v48.039c-53.117-13.445-93.75-82.762-93.75-166.22 0-93.055 50.457-168.75 112.5-168.75zm-115.61 37.5c-8.0234 13.332-14.699 28.18-20.102 44.008l-44.023-44.008zm-369.62 80.492 80.492-80.492h29.738v-37.5h-128.72c3.2812-12.02 9.6367-23.137 18.488-32.008l80.492-80.492h29.738v-37.5h-131.25v-0.26172c0-5.6055 2.8125-10.855 7.7422-14.398 73.031-52.273 131.89-122.83 170.25-203.98 3.6953-7.875 15.301-7.875 19.012 0 38.363 81.148 97.238 151.71 170.23 203.98 4.9531 3.543 7.7656 8.8086 7.7656 14.398l-131.25 0.26172v37.5h29.738l80.492 80.492c8.8672 8.8672 15.227 19.988 18.488 32.008h-128.72v37.5h29.738l80.492 80.492c2.1016 2.1016 4.0117 4.3125 5.8125 6.6172-1.3125 8.2891-2.2891 16.742-2.8516 25.387l-354.41 0.003906c3.2812-12.02 9.6172-23.137 18.488-32.008zm185.23 69.508h150.7c6.3555 96.414 61.145 173.74 130.55 185.72v114.28h-75.301c12.133-16.125 19.051-35.758 19.051-56.25 0-51.695-42.055-93.75-93.75-93.75-5.8672 0-11.793 0.60156-17.68 1.8008-17.422-24.582-45.34-39.301-76.07-39.301h-0.39453c-9.7305-12.957-22.613-22.93-37.105-29.363zm-107.61 189.47 14.738-3.75-0.63672-15.227c-0.039063-0.89844-0.13281-1.8008-0.22656-1.8008 0 0-0.019531 0.019532-0.019531 0.039063 0-31.012 25.238-56.25 56.25-56.25 20.082 0 38.758 11.082 48.789 28.914l7.8945 10.949 12.695-1.7812c1.832-0.22656 3.6914-0.5625 5.6211-0.5625 21.602 0 40.93 12.227 50.438 31.93l7.4609 15.488 16.07-6.1133c38.586-14.625 76.051 14.965 76.031 52.445 0 16.125-6.9375 31.52-19.07 42.188l-10.855 14.062h-275.38l-13.145-14.062c-12.113-10.668-19.051-26.062-19.051-42.188 0-25.574 17.438-47.906 42.395-54.281zm857.61 185.53h-225c-31.012 0-56.25 25.238-56.25 56.25 0 6.6016 1.3516 12.863 3.4492 18.75h-40.949v37.5h150c10.352 0 18.75 8.3984 18.75 18.75s-8.3984 18.75-18.75 18.75h-731.25c-10.352 0-18.75-8.3984-18.75-18.75s8.3984-18.75 18.75-18.75h112.5v-37.5h-262.5c-10.352 0-18.75-8.3984-18.75-18.75s8.3984-18.75 18.75-18.75h56.25c31.012 0 56.25-25.238 56.25-56.25 0-10.352 8.3984-18.75 18.75-18.75h918.75c10.352 0 18.75 8.3984 18.75 18.75s-8.3984 18.75-18.75 18.75z"/>
  <path fill="#333" d="m450 1040.6c0-25.855-21.02-46.875-46.875-46.875h-65.625v37.5h65.625c5.1562 0 9.375 4.2188 9.375 9.375 0 25.855 21.02 46.875 46.875 46.875h65.625v-37.5h-65.625c-5.1562 0-9.375-4.2188-9.375-9.375z"/>
 </g>
</svg>
