<?xml version="1.0" encoding="UTF-8"?>
<svg width="1200pt" height="1200pt" version="1.1" viewBox="0 0 1200 1200" xmlns="http://www.w3.org/2000/svg">
 <g>
  <path fill="#ffdb58" d="m846.79 559.99c9.3008-139.74 66.648-276.84 173.21-383.44l-56.566-56.555c-77.41 77.461-131.61 169.18-163.78 266.55 14.914-79.992 38.004-159.07 69.84-236.02l-73.906-30.539c-35.426 85.668-60.348 173.04-75.973 260.7 7.332-81.961 18.672-163.82 34.609-245.39l-78.52-15.312c-16.367 83.809-28.094 168.89-35.711 254.88v-254.88h-79.992v274.71c-8.0508-91.246-20.711-182.88-39.371-274.71l-78.359 15.938c15.625 76.668 27.336 153.66 35.305 230.86-16.094-84.695-40.621-167.46-73.477-246.79l-73.895 30.613c31.754 76.645 54.875 155.36 69.84 235.05-32.234-97.031-86.258-188.44-163.48-265.67l-56.566 56.555c106.56 106.57 163.91 243.68 173.21 383.44z"/>
  <path fill="#ffdb58" d="m353.21 639.98c-9.3008 139.74-66.648 276.84-173.21 383.44l56.566 56.578c77.41-77.461 131.55-169.2 163.78-266.58-14.914 80.016-38.004 159.07-69.84 236.02l73.906 30.562c35.426-85.668 60.348-173.06 75.973-260.72-7.332 81.961-18.672 163.82-34.609 245.39l78.52 15.336c16.367-83.879 28.094-169.03 35.711-255v255h79.992v-274.57c8.0508 91.176 20.711 182.76 39.371 274.57l78.359-15.938c-15.59-76.738-27.383-153.73-35.352-230.9 16.141 84.73 40.633 167.46 73.523 246.84l73.895-30.637c-31.754-76.645-54.875-155.34-69.84-235.01 32.234 97.031 86.258 188.41 163.48 265.64l56.566-56.578c-106.56-106.55-163.91-243.66-173.21-383.44z"/>
 </g>
</svg>
