<svg version="1.1" viewBox="0 0 1200 1200" xmlns="http://www.w3.org/2000/svg">
 <g>
  <path d="m886.8 1188c-40.801-103.2-63.602-237.6-67.199-400.8 1.1992-4.8008 3.6016-9.6016 4.8008-14.398 36-108 72-218.4 44.398-296.4-12-34.801-13.199-38.398-26.398-56.398-3.6016-4.8008-8.3984-10.801-14.398-21.602 86.398-94.801 2.3984-324-8.3984-351.6l-20.398-54-22.801 50.398c-57.602 84-112.8 172.8-126 254.4-33.602-4.8008-67.199-3.6016-102 1.1992-12-82.801-68.398-171.6-127.2-255.6l-22.801-50.398-20.398 52.801c-10.801 26.398-94.801 252-8.3984 350.4-1.1992 1.1992-1.1992 2.3984-2.3984 2.3984-13.199 18-24 33.602-39.602 75.602-27.602 78 9.6016 188.4 44.398 296.4 1.1992 4.8008 3.6016 9.6016 4.8008 14.398-2.3984 163.2-25.199 298.8-67.199 400.8l44.398 18c31.199-76.801 51.602-169.2 62.398-278.4 4.8008 21.602 7.1992 42 7.1992 61.199 1.1992 24 9.6016 45.602 21.602 62.398 3.6016 90 57.602 140.4 152.4 140.4 93.602 0 148.8-51.602 152.4-140.4 12-18 19.199-38.398 21.602-62.398 0-19.199 2.3984-39.602 7.1992-61.199 10.801 108 31.199 201.6 62.398 278.4zm-86.402-832.8c-34.801-70.801-20.398-162-3.6016-223.2 19.203 74.398 34.805 172.8 3.6016 223.2zm-398.4-223.2c16.801 61.199 32.398 152.4-3.6016 223.2-31.199-51.598-15.598-150 3.6016-223.2zm-34.801 400.8c9.6016 2.3984 18 6 26.398 10.801-10.801 12-16.801 27.602-16.801 44.398 0 36 27.602 64.801 62.398 64.801 4.8008 0 10.801-1.1992 15.602-2.3984 2.3984 24 3.6016 51.602 1.1992 85.199l48 2.3984c6-100.8-3.6016-219.6-127.2-250.8 10.801-28.801 18-39.602 30-55.199 4.8008-7.1992 10.801-15.602 18-25.199 42-58.801 48-133.2 40.801-198 19.199 36 32.398 72 36 104.4-4.8008 1.1992-9.6016 2.3984-15.602 3.6016l14.398 45.602c68.398-21.602 136.8-21.602 202.8 0l14.398-45.602c-7.1992-2.3984-14.398-3.6016-21.602-6 4.8008-32.398 18-66 36-102-7.1992 64.801-1.1992 138 40.801 196.8 15.602 24 24 36 30 44.398 8.3984 10.801 8.3984 12 18 37.199-123.6 31.199-132 151.2-127.2 252l48-2.3984c-2.3984-32.398-1.1992-61.199 1.1992-85.199 4.8008 1.1992 9.6016 2.3984 15.602 2.3984 34.801 0 62.398-28.801 62.398-64.801 0-16.801-7.1992-32.398-16.801-44.398 8.3984-4.8008 16.801-7.1992 26.398-10.801 2.3984 61.199-25.199 144-51.602 225.6-25.199 75.602-50.398 153.6-54 219.6 0 57.602-42 87.602-126 87.602s-126-30-126-87.602c-2.3984-66-28.801-144-54-219.6-26.391-82.801-53.988-165.6-51.59-226.8zm62.402 42c6 8.3984 9.6016 16.801 14.398 27.602-1.1992 1.1992-3.6016 1.1992-4.8008 1.1992-7.1992 0-14.398-7.1992-14.398-16.801 0-4.8008 1.1992-9.6016 4.8008-12zm344.4 12c0 8.3984-6 16.801-14.398 16.801-1.1992 0-3.6016 0-4.8008-1.1992 3.6016-10.801 8.3984-19.199 14.398-27.602 2.4023 2.3984 4.8008 7.1992 4.8008 12zm-175.2 558c-49.199 0-80.398-15.602-94.801-48 26.398 10.801 57.602 16.801 94.801 16.801s68.398-6 94.801-16.801c-14.402 31.199-45.602 48-94.801 48z"/>
  <path d="m702 942-33.602-33.602c-19.199 19.199-32.398 43.199-39.602 69.602l46.801 10.801c4.8008-19.199 13.203-34.801 26.402-46.801z"/>
  <path d="m568.8 978c-6-27.602-19.199-50.398-39.602-69.602l-33.602 33.602c13.199 13.199 21.602 28.801 26.398 46.801z"/>
 </g>
</svg>
