<?xml version="1.0" encoding="UTF-8"?>
<svg version="1.1" viewBox="0 0 1200 1200" xmlns="http://www.w3.org/2000/svg">
 <g>
  <path d="m168.75 1125c-44.742-0.050781-87.633-17.844-119.27-49.48s-49.43-74.527-49.48-119.27c0-6.6992 3.5742-12.887 9.375-16.238 5.8008-3.3477 12.949-3.3477 18.75 0 5.8008 3.3516 9.375 9.5391 9.375 16.238 0 46.891 25.016 90.219 65.625 113.66 40.609 23.449 90.641 23.449 131.25 0 40.609-23.445 65.625-66.773 65.625-113.66 0-6.6992 3.5742-12.887 9.375-16.238 5.8008-3.3477 12.949-3.3477 18.75 0 5.8008 3.3516 9.375 9.5391 9.375 16.238-0.050781 44.742-17.844 87.633-49.48 119.27s-74.527 49.43-119.27 49.48z"/>
  <path d="m168.75 1050c-24.855-0.027344-48.684-9.9141-66.258-27.492-17.578-17.574-27.465-41.402-27.492-66.258 0-6.6992 3.5742-12.887 9.375-16.238 5.8008-3.3477 12.949-3.3477 18.75 0 5.8008 3.3516 9.375 9.5391 9.375 16.238 0 20.098 10.723 38.664 28.125 48.715 17.402 10.047 38.848 10.047 56.25 0 17.402-10.051 28.125-28.617 28.125-48.715 0-6.6992 3.5742-12.887 9.375-16.238 5.8008-3.3477 12.949-3.3477 18.75 0 5.8008 3.3516 9.375 9.5391 9.375 16.238-0.027344 24.855-9.9141 48.684-27.492 66.258-17.574 17.578-41.402 27.465-66.258 27.492z"/>
  <path d="m1031.2 1125h-862.5c-6.6992 0-12.887-3.5742-16.238-9.375-3.3477-5.8008-3.3477-12.949 0-18.75 3.3516-5.8008 9.5391-9.375 16.238-9.375h862.5c6.6992 0 12.887 3.5742 16.238 9.375 3.3477 5.8008 3.3477 12.949 0 18.75-3.3516 5.8008-9.5391 9.375-16.238 9.375z"/>
  <path d="m1031.2 1125c-6.6992 0-12.887-3.5742-16.238-9.375-3.3477-5.8008-3.3477-12.949 0-18.75 3.3516-5.8008 9.5391-9.375 16.238-9.375 34.797-0.042969 68.156-13.883 92.762-38.488s38.445-57.965 38.488-92.762c0-6.6992 3.5742-12.887 9.375-16.238 5.8008-3.3477 12.949-3.3477 18.75 0 5.8008 3.3516 9.375 9.5391 9.375 16.238-0.050781 44.742-17.844 87.633-49.48 119.27s-74.527 49.43-119.27 49.48z"/>
  <path d="m1181.2 975c-4.9727 0.003906-9.7461-1.9727-13.262-5.4883s-5.4922-8.2891-5.4883-13.262v-862.5c0-6.6992 3.5742-12.887 9.375-16.238 5.8008-3.3477 12.949-3.3477 18.75 0 5.8008 3.3516 9.375 9.5391 9.375 16.238v862.5c0.003906 4.9727-1.9727 9.7461-5.4883 13.262s-8.2891 5.4922-13.262 5.4883z"/>
  <path d="m318.75 975c-4.9727 0.003906-9.7461-1.9727-13.262-5.4883s-5.4922-8.2891-5.4883-13.262v-862.5c0-6.6992 3.5742-12.887 9.375-16.238 5.8008-3.3477 12.949-3.3477 18.75 0 5.8008 3.3516 9.375 9.5391 9.375 16.238v862.5c0.003906 4.9727-1.9727 9.7461-5.4883 13.262s-8.2891 5.4922-13.262 5.4883z"/>
  <path d="m1181.2 112.5h-862.5c-6.6992 0-12.887-3.5742-16.238-9.375-3.3477-5.8008-3.3477-12.949 0-18.75 3.3516-5.8008 9.5391-9.375 16.238-9.375h862.5c6.6992 0 12.887 3.5742 16.238 9.375 3.3477 5.8008 3.3477 12.949 0 18.75-3.3516 5.8008-9.5391 9.375-16.238 9.375z"/>
  <path d="m18.75 975c-4.9727 0.003906-9.7461-1.9727-13.262-5.4883s-5.4922-8.2891-5.4883-13.262v-506.25c0-6.6992 3.5742-12.887 9.375-16.238 5.8008-3.3477 12.949-3.3477 18.75 0 5.8008 3.3516 9.375 9.5391 9.375 16.238v506.25c0.003906 4.9727-1.9727 9.7461-5.4883 13.262s-8.2891 5.4922-13.262 5.4883z"/>
  <path d="m243.75 468.75h-225c-6.6992 0-12.887-3.5742-16.238-9.375-3.3477-5.8008-3.3477-12.949 0-18.75 3.3516-5.8008 9.5391-9.375 16.238-9.375h225c6.6992 0 12.887 3.5742 16.238 9.375 3.3477 5.8008 3.3477 12.949 0 18.75-3.3516 5.8008-9.5391 9.375-16.238 9.375z"/>
  <path d="m243.75 975c-4.9727 0.003906-9.7461-1.9727-13.262-5.4883s-5.4922-8.2891-5.4883-13.262v-862.5c0-6.6992 3.5742-12.887 9.375-16.238 5.8008-3.3477 12.949-3.3477 18.75 0 5.8008 3.3516 9.375 9.5391 9.375 16.238v862.5c0.003906 4.9727-1.9727 9.7461-5.4883 13.262s-8.2891 5.4922-13.262 5.4883z"/>
  <path d="m93.75 975c-4.9727 0.003906-9.7461-1.9727-13.262-5.4883s-5.4922-8.2891-5.4883-13.262v-506.25c0-6.6992 3.5742-12.887 9.375-16.238 5.8008-3.3477 12.949-3.3477 18.75 0 5.8008 3.3516 9.375 9.5391 9.375 16.238v506.25c0.003906 4.9727-1.9727 9.7461-5.4883 13.262s-8.2891 5.4922-13.262 5.4883z"/>
  <path d="m318.75 112.5h-75c-6.6992 0-12.887-3.5742-16.238-9.375-3.3477-5.8008-3.3477-12.949 0-18.75 3.3516-5.8008 9.5391-9.375 16.238-9.375h75c6.6992 0 12.887 3.5742 16.238 9.375 3.3477 5.8008 3.3477 12.949 0 18.75-3.3516 5.8008-9.5391 9.375-16.238 9.375z"/>
  <path d="m712.5 974.91h-300c-6.6992 0-12.887-3.5742-16.238-9.375-3.3477-5.8047-3.3477-12.949 0-18.75 3.3516-5.8047 9.5391-9.375 16.238-9.375h300c6.6992 0 12.887 3.5703 16.238 9.375 3.3477 5.8008 3.3477 12.945 0 18.75-3.3516 5.8008-9.5391 9.375-16.238 9.375z"/>
  <path d="m1087.9 974.91h-300c-6.6992 0-12.891-3.5742-16.238-9.375-3.3516-5.8047-3.3516-12.949 0-18.75 3.3477-5.8047 9.5391-9.375 16.238-9.375h300c6.6992 0 12.887 3.5703 16.238 9.375 3.3477 5.8008 3.3477 12.945 0 18.75-3.3516 5.8008-9.5391 9.375-16.238 9.375z"/>
  <path d="m562.3 1031.2h-149.8c-6.6992 0-12.887-3.5742-16.238-9.375-3.3477-5.8047-3.3477-12.949 0-18.75 3.3516-5.8047 9.5391-9.375 16.238-9.375h149.8c6.6992 0 12.891 3.5703 16.238 9.375 3.3516 5.8008 3.3516 12.945 0 18.75-3.3477 5.8008-9.5391 9.375-16.238 9.375z"/>
  <path d="m937.66 1031.2h-149.8c-6.6992 0-12.891-3.5742-16.238-9.375-3.3516-5.8047-3.3516-12.949 0-18.75 3.3477-5.8047 9.5391-9.375 16.238-9.375h149.8c6.6992 0 12.891 3.5703 16.238 9.375 3.3516 5.8008 3.3516 12.945 0 18.75-3.3477 5.8008-9.5391 9.375-16.238 9.375z"/>
  <path d="m1087.9 900h-675.37c-4.9727 0.003906-9.7461-1.9727-13.262-5.4883s-5.4922-8.2891-5.4883-13.262v-581.25c-0.003906-4.9727 1.9727-9.7461 5.4883-13.262s8.2891-5.4922 13.262-5.4883h675.37c4.9727-0.003906 9.7422 1.9727 13.262 5.4883 3.5156 3.5156 5.4883 8.2891 5.4883 13.262v581.25c0 4.9727-1.9727 9.7461-5.4883 13.262-3.5195 3.5156-8.2891 5.4922-13.262 5.4883zm-656.62-37.5h637.87v-543.75h-637.87z"/>
  <path d="m1087.5 243.75h-675c-4.9727 0.003906-9.7461-1.9727-13.262-5.4883s-5.4922-8.2891-5.4883-13.262v-56.25c-0.003906-4.9727 1.9727-9.7461 5.4883-13.262s8.2891-5.4922 13.262-5.4883h675c4.9727-0.003906 9.7461 1.9727 13.262 5.4883s5.4922 8.2891 5.4883 13.262v56.25c0.003906 4.9727-1.9727 9.7461-5.4883 13.262s-8.2891 5.4922-13.262 5.4883zm-656.25-37.5h637.5v-18.75h-637.5z"/>
  <path d="m599.98 712.5h-187.28c-6.6992 0-12.891-3.5742-16.238-9.375-3.3516-5.8008-3.3516-12.949 0-18.75 3.3477-5.8008 9.5391-9.375 16.238-9.375h187.28c6.6992 0 12.891 3.5742 16.238 9.375 3.3516 5.8008 3.3516 12.949 0 18.75-3.3477 5.8008-9.5391 9.375-16.238 9.375z"/>
  <path d="m599.96 712.5c-6.4961-0.003906-12.527-3.3711-15.941-8.8984-3.4141-5.5273-3.7188-12.43-0.8125-18.238l168.79-337.5h-0.003906c3.0078-5.9766 8.9688-9.8984 15.645-10.293 6.6758-0.39453 13.059 2.7969 16.75 8.375 3.6875 5.5781 4.1289 12.699 1.1523 18.691l-168.79 337.5c-1.5586 3.1172-3.957 5.7383-6.9219 7.5703-2.9648 1.8281-6.3828 2.7969-9.8672 2.793z"/>
  <path d="m525 712.5c-6.4961-0.003906-12.527-3.3711-15.941-8.8984-3.4102-5.5273-3.7188-12.43-0.8125-18.238l131.29-262.5c3.0039-5.9766 8.9648-9.8984 15.641-10.293 6.6797-0.39453 13.062 2.7969 16.75 8.375 3.6914 5.5781 4.1289 12.699 1.1523 18.691l-131.29 262.5c-1.5586 3.1172-3.9531 5.7383-6.9219 7.5703-2.9648 1.8281-6.3828 2.7969-9.8672 2.793z"/>
  <path d="m806.23 450c-3.4883 0.007812-6.9062-0.96094-9.875-2.7969-2.9648-1.8359-5.3633-4.4609-6.9141-7.5859l-37.445-75c-2.9805-5.9922-2.5391-13.117 1.1523-18.695 3.6953-5.5781 10.082-8.7656 16.762-8.3633 6.6797 0.40625 12.637 4.3398 15.629 10.324l37.445 75c2.8945 5.8086 2.582 12.699-0.83203 18.219-3.4102 5.5234-9.4336 8.8867-15.922 8.8984z"/>
  <path d="m1031.3 506.3c-1.543 0-3.082-0.19141-4.5781-0.56641l-225.04-56.305c-6.4961-1.6289-11.629-6.6016-13.465-13.039-1.8398-6.4414-0.10156-13.371 4.5586-18.184s11.531-6.7734 18.027-5.1445l225.04 56.305h-0.003906c5.9648 1.5 10.816 5.8242 12.984 11.578 2.168 5.7578 1.3711 12.207-2.125 17.266-3.4961 5.0586-9.25 8.082-15.398 8.0898z"/>
  <path d="m993.77 600.05c-6.2227 0.003906-12.039-3.082-15.527-8.2344-3.4922-5.1484-4.1953-11.695-1.8867-17.473l37.48-93.75c1.8359-4.6328 5.4375-8.3477 10.016-10.32 4.5781-1.9727 9.75-2.0391 14.379-0.19141 4.6289 1.8516 8.3281 5.4648 10.285 10.047 1.957 4.5859 2.0117 9.7578 0.14844 14.379l-37.48 93.75c-1.3906 3.4844-3.793 6.4688-6.8984 8.5703-3.1055 2.1016-6.7656 3.2227-10.516 3.2227z"/>
  <path d="m993.77 600.05h-187.57c-6.6992 0-12.891-3.5742-16.238-9.375-3.3477-5.8008-3.3477-12.949 0-18.75 3.3477-5.8008 9.5391-9.375 16.238-9.375h187.57c6.6992 0 12.887 3.5742 16.238 9.375 3.3477 5.8008 3.3477 12.949 0 18.75-3.3516 5.8008-9.5391 9.375-16.238 9.375z"/>
  <path d="m787.59 899.96c-0.38281 0-0.78906-0.019532-1.1719-0.039063-4.9609-0.30469-9.6016-2.5703-12.895-6.2969-3.293-3.7266-4.9688-8.6055-4.6641-13.57l18.621-299.91c0.41406-6.6875 4.3594-12.645 10.355-15.629 5.9961-2.9883 13.129-2.5469 18.715 1.1523 5.582 3.6992 8.7695 10.098 8.3555 16.781l-18.617 299.91c-0.29687 4.7578-2.3984 9.2266-5.8711 12.496-3.4727 3.2695-8.0586 5.0898-12.828 5.1016z"/>
  <path d="m729.97 450h-73.664c-6.6992 0-12.887-3.5742-16.238-9.375-3.3477-5.8008-3.3477-12.949 0-18.75 3.3516-5.8008 9.5391-9.375 16.238-9.375h73.664c6.6992 0 12.887 3.5742 16.238 9.375 3.3477 5.8008 3.3477 12.949 0 18.75-3.3516 5.8008-9.5391 9.375-16.238 9.375z"/>
 </g>
</svg>
