<?xml version="1.0" encoding="UTF-8"?>
<svg width="1200pt" height="1200pt" version="1.1" viewBox="0 0 1200 1200" xmlns="http://www.w3.org/2000/svg">
 <path d="m900 356.25c72.355 0 131.25-58.875 131.25-131.25s-58.895-131.25-131.25-131.25-131.25 58.875-131.25 131.25 58.895 131.25 131.25 131.25zm0-225c51.695 0 93.75 42.055 93.75 93.75s-42.055 93.75-93.75 93.75-93.75-42.055-93.75-93.75 42.055-93.75 93.75-93.75z"/>
 <path d="m300 843.75c-31.012 0-56.25 25.238-56.25 56.25s25.238 56.25 56.25 56.25 56.25-25.238 56.25-56.25-25.238-56.25-56.25-56.25zm0 75c-10.352 0-18.75-8.418-18.75-18.75s8.3984-18.75 18.75-18.75 18.75 8.418 18.75 18.75-8.3984 18.75-18.75 18.75z"/>
 <path d="m1011.3 431.25c5.6797-8.9258 11.625-17.664 18.133-26.043l33.375-42.918c28.031-36.02 43.461-80.984 43.461-126.62v-10.668c0-113.72-92.531-206.25-206.25-206.25s-206.25 92.531-206.25 206.25v10.668c0 45.637 15.43 90.617 43.445 126.62l33.375 42.918c6.5078 8.3828 12.469 17.137 18.133 26.043l-769.95 0.003906v750h1162.5v-750zm-244.48-91.969c-22.934-29.492-35.551-66.281-35.551-103.61v-10.668c0-93.039 75.695-168.75 168.75-168.75s168.75 75.711 168.75 168.75v10.668c0 37.332-12.617 74.137-35.551 103.61l-33.375 42.918c-40.199 51.676-66.32 113.23-75.582 178.03-1.7227 11.98-12.129 21.02-24.242 21.02s-22.52-9.0391-24.242-21.039c-9.2617-64.801-35.398-126.36-75.582-178.03zm133.2 316.97c-103.01 0-168.75-33.32-168.75-56.25 0-15.074 33.637-40.332 104.44-51.168 1.0703 5.5508 2.1367 11.102 2.9453 16.707 4.3477 30.336 30.73 53.211 61.367 53.211s57.02-22.875 61.367-53.211c0.80469-5.6055 1.8555-11.156 2.9453-16.688 70.801 10.816 104.44 36.074 104.44 51.148 0 22.93-65.738 56.25-168.75 56.25zm-73.668-144.11c-81.227 13.145-132.58 46.574-132.58 87.863 0 57.094 93.414 89.551 187.5 93.375v94.125c0 10.332-8.3984 18.75-18.75 18.75h-187.5c-10.352 0-18.75-8.418-18.75-18.75v-93.75c0-31.012-25.238-56.25-56.25-56.25s-56.25 25.238-56.25 56.25v356.25c0 10.332-8.3984 18.75-18.75 18.75s-18.75-8.418-18.75-18.75v-112.5c0-31.012-25.238-56.25-56.25-56.25h-20.25c-6.3555-44.117-34.648-81.113-73.5-99.656v-312.84h453.15c6.6406 14.062 12.281 28.555 16.934 43.387zm-582.58 506.27c17.082 8.1367 36.113 12.844 56.25 12.844 6.375 0 12.602-0.61719 18.75-1.5v114h-75zm56.25-24.656c-51.695 0-93.75-42.055-93.75-93.75s42.055-93.75 93.75-93.75 93.75 42.055 93.75 93.75-42.055 93.75-93.75 93.75zm-56.25-525h75v301.5c-6.1484-0.88281-12.375-1.5-18.75-1.5-20.137 0-39.168 4.707-56.25 12.844v-125.34h-187.5v-75h187.5zm-37.5 0v75h-150v-75zm-150 225h150v114.58c-23.156 23.66-37.5 56.004-37.5 91.668s14.344 68.008 37.5 91.668v152.08h-150zm1087.5 450h-787.5v-125.34c38.852-18.543 67.145-55.539 73.5-99.656h20.25c10.352 0 18.75 8.418 18.75 18.75v112.5c0 31.012 25.238 56.25 56.25 56.25s56.25-25.238 56.25-56.25v-356.25c0-10.332 8.3984-18.75 18.75-18.75s18.75 8.418 18.75 18.75v93.75c0 31.012 25.238 56.25 56.25 56.25h187.5c31.012 0 56.25-25.238 56.25-56.25v-94.125c94.086-3.8242 187.5-36.281 187.5-93.375 0-41.289-51.355-74.719-132.58-87.863 4.6484-14.852 10.312-29.324 16.93-43.387h153.15z"/>
 <path d="m1068.8 1068.8h37.5v37.5h-37.5z"/>
 <path d="m993.75 1068.8h37.5v37.5h-37.5z"/>
 <path d="m918.75 1068.8h37.5v37.5h-37.5z"/>
 <path d="m918.75 993.75h187.5v37.5h-187.5z"/>
 <path d="m918.75 918.75h187.5v37.5h-187.5z"/>
</svg>
