<?xml version="1.0" encoding="UTF-8"?>
<svg width="1200pt" height="1200pt" version="1.1" viewBox="0 0 1200 1200" xmlns="http://www.w3.org/2000/svg">
 <path d="m904.97 553.26c1.9688-20.953-3.6562-38.578-17.156-53.859-57.422-64.875-235.97-69.281-294.66-70.734l-8.625-0.23438c-67.172-3.6094-84.656-22.312-136.64-77.859l-1.4062-1.5c-7.125-7.6406-15-16.031-23.906-25.312-37.875-36.703-87.188-55.312-146.68-55.312-56.016 0-104.91 17.672-113.62 23.953l-3.375 3.4688-3.8438-3.5625c-4.4062-3.4219-15.469-6.9375-32.812-10.453-2.5312-0.51562-5.1562 0.65625-6.4219 2.9531-1.2656 2.25-0.9375 5.1094 0.84375 7.0312l17.344 18.703-1.2656 3.4688c-6 16.453-13.031 38.297-14.109 46.312-0.1875 1.2188 0.046875 2.4375 0.5625 3.5156 2.8125 5.5781 7.5938 16.734 13.5 31.406l0.84375 2.0625-0.65625 2.0156c-0.14062 0.375-14.766 43.688-20.25 66.656-1.3594 5.8125-0.5625 10.641 2.3906 14.766 7.2188 10.031 25.5 13.641 30 14.062 1.875 0.1875 3.5625 0.23438 5.1562 0.23438 11.672 0 18.703-4.3125 20.906-12.844 4.5938-18.328 28.781-47.109 49.734-67.828 20.016-18.75 29.297-36.188 27.609-51.844-1.4062-12.609-9.7969-21.469-15.375-26.062l6.0469-10.5c6.9844 5.4375 19.172 17.25 21.234 34.969 0.23438 1.9688 0.23438 3.9375 0.23438 5.8594 0 2.6719 1.6875 5.0156 4.2656 5.8125 53.391 16.266 55.359 71.953 51.75 103.5-2.9062 20.531-6.1875 43.781-6.375 68.625-0.46875 69.75 14.391 87.938 15.234 88.875 0.60938 0.65625 60.422 64.688 70.547 121.4 9.7969 54.844 13.734 133.64 13.922 136.97l0.09375 2.3438-22.922 27.234c-1.5 1.7812-1.8281 4.3125-0.84375 6.375 0.98438 2.1094 3.0938 3.4688 5.4375 3.4688h46.125c2.4375 0 4.6406-1.4531 5.5312-3.7031l11.344-27.609c0.28125-0.75 0.46875-1.5 0.46875-2.2969l-0.14062-262.13h12v23.438c0 3.3281 2.6719 6 6 6h171.24c1.5938 0 3.1875-0.65625 4.3125-1.7812 1.125-1.1719 1.7344-2.7188 1.6875-4.3125l-0.65625-27.094 12-0.28125 2.0625 89.016c0 0.5625 0.09375 1.125 0.28125 1.6875l25.312 80.344-80.906 102.89-14.203 16.125c-1.5469 1.7812-1.9219 4.3125-0.98437 6.4688 0.98437 2.1562 3.0938 3.5156 5.4844 3.5156h56.016c3.0938 0 5.6719-2.3438 6-5.4375l2.5312-27.469 76.031-92.719c0.65625-0.79688 1.125-1.7812 1.2656-2.8125l13.453-78.422 2.2031-1.4062c1.5469-1.0781 148.87-98.578 148.82-170.16z"/>
 <path d="m298.26 560.39c-0.046875-1.8281-0.9375-3.5156-2.3438-4.5938s-3.2812-1.4531-5.0625-1.0781c-57.234 13.922-152.76 48.094-147.61 87.984 6.7031 52.031 22.078 112.78 26.625 130.13 0.28125 1.0781 0.84375 2.0625 1.6875 2.8125l39.234 37.359 18 15.422c1.0781 0.9375 2.4844 1.4531 3.8906 1.4531h0.46875c1.5938-0.09375 3.0469-0.89062 4.0781-2.1094l17.344-20.438c0.84375-0.9375 1.3125-2.1562 1.4062-3.4219l2.1562-27.047c0.1875-2.0625-0.75-4.0312-2.3906-5.25l-51.094-38.062-8.8125-83.719 109.88-9c1.9688-0.14062 3.7031-1.2656 4.6875-2.9531 0.98437-1.6875 1.0781-3.75 0.28125-5.5312-5.0625-10.875-11.297-32.203-12.422-71.953z"/>
 <path d="m930.79 779.02-48.188-136.6c-0.70312-2.0156-2.4375-3.4688-4.5-3.8906s-4.2188 0.28125-5.625 1.875c-24.656 27.656-54.656 52.5-75.516 68.391-1.5469 1.1719-2.3906 3-2.3438 4.9219s1.0312 3.7031 2.625 4.7812l5.1562 3.4688c53.812 36.234 83.812 57.234 88.125 64.453 6.9844 11.625 16.641 78.891 16.641 87.938 0 6.0938-9.0938 23.062-25.688 47.812-1.2188 1.875-1.3594 4.2188-0.28125 6.1875 1.0312 1.9688 3.0938 3.1875 5.2969 3.1875h30c2.1562 0 4.125-1.125 5.1562-3l15.094-25.828 14.812-3.7031c3.1406-0.79688 5.1094-3.9375 4.4062-7.125z"/>
 <path d="m1085.2 738.47c-20.25-11.812-30.094-44.344-34.031-112.41-4.0312-70.031-84.656-104.81-132.32-119.34-2.2031-0.65625-4.6406 0-6.1875 1.6875-1.5469 1.7344-1.9688 4.1719-1.125 6.3281 3.75 9 5.7188 18.609 5.8125 28.594 0.046874 2.4844 1.5938 4.6875 3.9375 5.5312 36.703 13.5 49.078 86.859 49.078 118.22 0 43.688 2.8125 75.469 39.234 87.047 7.7812 2.4844 16.641 3.75 26.344 3.75 15.094 0 32.625-3.1406 48.188-8.625 2.2031-0.79688 3.75-2.7656 3.9844-5.1094 0.23438-2.2969-0.89062-4.5469-2.9062-5.6719z"/>
</svg>
