<?xml version="1.0" encoding="UTF-8"?>
<svg width="1200pt" height="1200pt" version="1.1" viewBox="0 0 1200 1200" xmlns="http://www.w3.org/2000/svg">
 <path d="m750 187.5v825c-0.17188 7.2188-2.3828 14.242-6.375 20.262s-9.6016 10.789-16.184 13.758c-5.2422 2.3008-10.902 3.4844-16.625 3.4805-8.8789-0.003906-17.473-3.1562-24.242-8.8984l-255.23-216.1h-151.77c-24.684-0.09375-48.301-10.055-65.594-27.664-17.293-17.609-26.828-41.406-26.473-66.086v-262.5c-0.35547-24.68 9.1797-48.477 26.473-66.086 17.293-17.609 40.91-27.57 65.594-27.664h151.77l255.66-216.1c7.4453-6.1758 16.941-9.3203 26.602-8.8047 9.6602 0.51172 18.773 4.6484 25.52 11.582 6.7422 6.9336 10.629 16.152 10.879 25.824zm61.23 285.21c-8.8984 4.4453-15.664 12.246-18.809 21.684-3.1484 9.4375-2.4141 19.738 2.0352 28.633 10.668 24.262 16.176 50.473 16.176 76.977s-5.5078 52.715-16.176 76.977c-5.9922 11.984-5.1367 26.254 2.2461 37.438 7.3828 11.184 20.168 17.578 33.547 16.773 13.375-0.80078 25.305-8.6797 31.297-20.664 15.82-34.699 24.004-72.391 24.004-110.52s-8.1836-75.824-24.004-110.52c-4.457-8.8867-12.258-15.645-21.691-18.789-9.4336-3.1406-19.727-2.418-28.625 2.0195zm154.8-95.73c-5.9922-11.984-17.926-19.859-31.301-20.664-13.375-0.80078-26.16 5.5938-33.543 16.773-7.3828 11.184-8.2383 25.453-2.2461 37.438 26.707 59.598 40.512 124.17 40.512 189.48s-13.805 129.88-40.512 189.48c-4.4492 8.8945-5.1797 19.195-2.0352 28.633 3.1445 9.4336 9.9102 17.234 18.805 21.684 8.8984 4.4492 19.199 5.1836 28.633 2.0352 9.4375-3.1445 17.238-9.9062 21.688-18.805 31.926-70.016 48.449-146.07 48.449-223.02s-16.523-153.01-48.449-223.02z"/>
</svg>
