<?xml version="1.0" encoding="UTF-8"?>
<svg width="1200pt" height="1200pt" version="1.1" viewBox="0 0 1200 1200" xmlns="http://www.w3.org/2000/svg">
 <path d="m982.78 464.39h-187.18c-9.6094 0-18 8.3906-18 18s8.3906 18 18 18h187.22c9.6094 0 18-8.3906 18-18-0.046875-9.6094-8.4375-18-18.047-18z"/>
 <path d="m982.78 588h-260.39c-9.6094 0-18 8.3906-18 18s8.3906 18 18 18h260.39c9.6094 0 18-8.3906 18-18s-8.3906-18-18-18z"/>
 <path d="m982.78 712.78h-260.39c-9.6094 0-18 8.3906-18 18s8.3906 18 18 18h260.39c9.6094 0 18-8.3906 18-18 0-9.5625-8.3906-18-18-18z"/>
 <path d="m982.78 836.39h-260.39c-9.6094 0-18 8.3906-18 18s8.3906 18 18 18h260.39c9.6094 0 18-8.3906 18-18s-8.3906-18-18-18z"/>
 <path d="m1017.6 60h-682.82c-38.391 0-70.781 32.391-70.781 70.781v278.39h-99.609c-28.781 0-52.781 24-52.781 52.781v364.78c0 28.781 24 52.781 52.781 52.781l99.609 0.09375v188.39c0 39.609 32.391 70.781 70.781 70.781h682.78c39.609 0 70.781-32.391 70.781-70.781l0.046875-937.22c1.2188-38.391-31.172-70.781-70.781-70.781zm-871.22 766.78v-364.78c0-9.6094 7.2188-16.781 16.781-16.781h424.82c9.6094 0 16.781 7.2188 16.781 16.781v364.78c0 9.6094-7.2188 16.781-16.781 16.781l-423.61 0.046875c-9.6094 1.1719-18-7.2188-18-16.828zm907.22 242.44c0 19.219-15.609 34.781-34.781 34.781h-684.05c-19.219 0-34.781-15.609-34.781-34.781v-188.44h288c28.781 0 52.781-24 52.781-52.781v-366c0-30-24-52.781-52.781-52.781h-288v-278.44c0-19.172 15.609-34.781 34.781-34.781h682.78c19.219 0 34.781 15.609 34.781 34.781l0.046875 938.44z"/>
 <path d="m896.39 300c-9.6094 0-18 8.3906-18 18s8.3906 18 18 18h78c9.6094 0 18-8.3906 18-18v-67.219c0-9.6094-8.3906-18-18-18h-60v-20.391h60c9.6094 0 18-8.3906 18-18s-8.3906-18-18-18h-78c-9.6094 0-18 8.3906-18 18v56.391c0 9.6094 8.3906 18 18 18h60v31.219z"/>
 <path d="m376.78 483.61c-88.781 0-160.78 72-160.78 160.78 0 88.781 72 160.78 160.78 160.78 88.781 0 160.78-72 160.78-160.78 0.046874-88.781-73.172-160.78-160.78-160.78zm120 129.61c-14.391 13.219-40.781 16.781-60 9.6094-14.391-4.7812-20.391-14.391-19.219-28.781 3.6094-14.391-2.3906-25.219-7.2188-33.609-6-10.781-9.6094-19.219 0-36 43.266 13.172 75.656 46.781 86.438 88.781zm-246 31.172v-10.781c15.609 0 21.609 12 31.219 32.391 8.3906 18 20.391 40.781 46.781 43.219 19.219 1.2188 31.219 8.3906 37.219 21.609s3.6094 30-1.2188 39.609c-62.391-6.0469-114-60.047-114-126.05zm153.61 122.39c3.6094-16.781 2.3906-34.781-4.7812-50.391-6-14.391-24-39.609-67.219-43.219-4.7812 0-9.6094-9.6094-16.781-22.781-8.3906-18-22.781-46.781-55.219-51.609 18-44.391 62.391-76.781 112.78-78-9.6094 27.609-1.2188 45.609 4.7812 57.609 1.2188 2.3906 3.6094 7.2188 3.6094 8.3906 0 1.2188 0 2.3906-1.2188 2.3906-4.7812 31.219 12 56.391 42 68.391 9.6094 3.6094 21.609 6 33.609 6 14.391 0 28.781-2.3906 42-8.3906-1.1719 54.047-40.734 99.609-93.562 111.61z"/>
 <path d="m471.61 176.39c-9.6094 0-18 8.3906-18 18v64.781l-51.609-75.609c-4.7812-6-13.219-9.6094-20.391-7.2188-7.2188 2.3906-13.219 9.6094-13.219 16.781v123.61c0 9.6094 8.3906 18 18 18s18-8.3906 18-18v-64.781l51.609 75.609c3.6094 4.7812 9.6094 8.3906 14.391 8.3906 1.2188 0 3.6094 0 4.7812-1.2188 7.2188-2.3906 13.219-9.6094 13.219-16.781v-123.56c1.2188-9.6094-7.1719-18-16.781-18z"/>
 <path d="m625.22 300h-60v-31.219h37.219c9.6094 0 18-8.3906 18-18s-8.3906-18-18-18h-37.219v-20.391h60c9.6094 0 18-8.3906 18-18s-8.3906-18-18-18h-78c-9.6094 0-18 8.3906-18 18v123.61c0 9.6094 8.3906 18 18 18h78c9.6094 0 18-8.3906 18-18s-7.2188-18-18-18z"/>
 <path d="m699.61 334.78c2.3906 1.2188 3.6094 1.2188 6 1.2188 4.7812 0 10.781-2.3906 14.391-7.2188l42-52.781 42 52.781c4.7812 6 13.219 8.3906 20.391 6 7.2188-2.3906 12-9.6094 12-16.781v-123.61c0-9.6094-8.3906-18-18-18s-18 8.3906-18 18v72l-24-30c-3.6094-4.7812-8.3906-7.2188-14.391-7.2188s-10.781 2.3906-14.391 7.2188l-24 30v-72c0-9.6094-8.3906-18-18-18s-18 8.3906-18 18v123.61c0 7.2188 4.7812 14.391 12 16.781z"/>
 <path d="m982.78 961.22h-594c-9.6094 0-18 8.3906-18 18s8.3906 18 18 18h595.22c9.6094 0 18-8.3906 18-18s-9.6094-18-19.219-18z"/>
</svg>
