<?xml version="1.0" encoding="UTF-8"?>
<svg width="1200pt" height="1200pt" version="1.1" viewBox="0 0 1200 1200" xmlns="http://www.w3.org/2000/svg">
 <path d="m727.01 984.56 69.613-69.613-139.21 0.003906zm0-198.11-69.602 69.602h139.21zm90.312 288.23v-139.03l-69.613 69.613zm0-239.33v-139.03l-69.613 69.613zm-159.91 260.02h139.21l-69.613-69.59zm-57.406-957.47-307.48 206.82-157.44 286.67v493.45h218.34l0.003906-239.33v-239.34h239.13v478.66h14.867l0.003907-239.32v-239.34h239.15v478.66h218.35v-493.45l-157.45-286.66zm99.613 341.89h-199.23v-199.38h199.22zm-157.6-24.539h115.97l-57.984-57.984zm133.22-17.246v-115.81l-57.996 57.996zm-150.48-115.81v115.82l57.984-57.996zm133.22-17.242h-115.97l57.984 57.973zm-0.57812 370.68 69.602 69.59 69.613-69.59zm-20.699 159.72 69.602-69.602-69.602-69.434zm-73.414 0v-139.03l-69.59 69.613zm0 239.33v-139.03l-69.59 69.613zm-180.61-239.33 69.613-69.602-69.613-69.434zm0 239.33 69.613-69.59-69.613-69.445zm20.711-399.05 69.613 69.59 69.59-69.59zm69.613 308.93 69.59-69.613h-139.2zm163.7 90.121 69.602-69.59-69.602-69.445zm-163.7-288.23-69.613 69.602h139.2zm-69.613 308.91h139.2l-69.59-69.59zm549.72-775.62-6.0977-11.16-10.559-6.9961-336.46-226.43-336.46 226.43-10.559 6.9961-6.0977 11.16-186.89 340.32 32.566 17.832 27.66-50.258 2.6641-4.9062 158.35-288.29 318.76-214.54 318.76 214.54 113.29 206.22 47.723 86.988 27.66 50.258 32.566-17.844z"/>
</svg>
