<?xml version="1.0" encoding="UTF-8"?>
<svg width="1200pt" height="1200pt" version="1.1" viewBox="0 0 1200 1200" xmlns="http://www.w3.org/2000/svg">
 <path d="m1125 56.062h-1050c-5.0625 0-9.75 1.875-13.312 5.4375s-5.4375 8.25-5.4375 13.312v1050.4c0 5.0625 2.0625 9.75 5.4375 13.312s8.25 5.4375 13.312 5.4375h1050c10.312-0.1875 18.75-8.625 18.75-18.938v-1050.2c0-10.312-8.4375-18.75-18.75-18.75zm-18.75 37.5v97.5h-1012.5v-97.5zm-510.74 264.94c-29.812 28.125-136.31 137.81-132.94 274.69 0 3.1875 0 17.25 1.3125 34.875-13.125-0.5625-23.812-10.875-24.375-24.375v-6.375c-1.6875-40.125 9.375-103.69 24.188-138.56 37.875-90 96.188-138 131.26-160.13 0 6.1875 0 12.75 0.75 19.875zm-95.625 274.31c-3.1875-138.19 126.19-251.63 127.5-252.74 4.875-4.125 7.125-10.312 6.375-16.688-5.4375-41.438 3.9375-63 10.875-72.75 12.938 10.688 20.062 30.375 21.938 38.625 2.25 9.9375 12 16.312 21.938 14.25 0.1875 0 23.812-4.5 33.75 12.188l99.562 190.31s4.6875 9.5625 4.6875 19.5c0 5.0625-2.4375 10.125-6.5625 14.25-6.75 6.5625-17.625 14.25-31.125 14.25-3.9375 0-35.438-0.5625-49.688-40.688-2.4375-6.9375-8.625-11.625-15.938-12.375-2.625-0.1875-64.312-6.9375-68.062-70.5-0.5625-10.312-9.1875-18.188-19.875-17.625-10.312 0.5625-18.188 9.375-17.625 19.875 2.4375 42.562 23.625 69.562 47.625 85.688-1.875 21.375-0.5625 63.375 28.125 104.81 0.1875 0.375 16.312 27 13.688 53.062h-198.56c-7.125-25.125-8.8125-66.938-8.625-83.438zm498.74 120.94v60h-797.26v-60.188h797.06zm0 157.5h-797.26v-60h797.06v60zm-797.26 37.5h797.06v60h-797.06zm797.26-232.5h-108.38s34.688-60 34.688-60h73.875v60zm-797.26 0v-60h73.688s34.688 60 34.688 60zm0 330h797.06v60h-797.06zm797.26-427.5h-84.562c-6.75 0-12.938 3.5625-16.312 9.375l-50.812 88.125h-102c2.0625-37.688-18.562-71.25-19.875-73.688-17.438-25.125-21.75-50.062-22.312-67.312 1.875 0.5625 3.75 0.9375 5.625 1.3125 21 45 62.062 56.25 81.188 54.938 25.5 0 44.812-13.5 56.625-24.75 11.438-11.062 18.188-26.062 18-41.25 0-18.938-7.875-34.688-8.8125-36.562l-100.31-191.44c-14.25-24-38.062-31.5-56.812-32.062-6.9375-17.625-21.75-45.375-50.25-55.5-5.25-1.875-10.875-1.3125-15.75 1.5-3 1.6875-19.688 12.375-29.812 40.125-28.5 13.312-119.44 64.125-173.44 192.74-16.688 39.938-28.875 109.12-27.375 154.5v6.75c1.875 33.75 29.438 60.188 63.188 60.188h3.1875c0.5625 3.5625 1.3125 6.9375 2.0625 10.312h-117s-50.812-88.125-50.812-88.125c-3.375-5.8125-9.5625-9.375-16.312-9.375h-84.562v-390h797.06v390.19zm-904.87-390.19h70.125v877.87h-70.125zm942.37 877.5v-877.5h70.125v877.5z"/>
</svg>
