<?xml version="1.0" encoding="UTF-8"?>
<svg width="1200pt" height="1200pt" version="1.1" viewBox="0 0 1200 1200" xmlns="http://www.w3.org/2000/svg">
 <g>
  <path d="m482.77 387.12c-6.6406-0.26953-12.402 0.089844-18.871 0.53516h-0.17969c-26.609 2.3477-53.473 11.875-80.891 28.242-8.418 4.9102-8.2461 16.688 0.71484 20.449-31.391 13.805-60.141 42.922-74.141 61.836-6.0352 7.8477-0.35547 19.191 9.5898 19.004l4.5781 0.007812c-11.344 13.559-18.844 26.625-23.926 41.305-6.043 15.316 17.664 23.461 22.312 7.668 6.0625-17.488 18.293-35.027 37.828-52.648 3.5078-3.1055 4.8984-8.9805 2.6953-13.773-2.668-5.8125-7.6484-7.7734-17.449-6.5781 21.773-22.359 48.156-37.477 72.98-44.848 4.9609-1.3906 8.9375-7.3984 8.4062-12.242-0.625-5.4883-5.0156-9.9258-9.8711-11.23 16.531-7.5586 34.918-12.395 49.059-13.66 5.793-0.44531 10.598-0.80469 16.078-0.53516 16.34 0.089844 18.324-22.52 1.043-23.535z"/>
  <path d="m574.95 350.87c-1.2031 0.17969-2.3828 0.53516-3.4805 1.043-28.668 13.926-47.113 32.551-52.418 59.668-9.9922 0.089844-18.816 1.7305-31.785 7.9688-88.008 42.605-154.8 137.17-174.86 212.68-4.0703 15.227 18.766 21.328 22.836 6.1055 17.887-67.352 82.684-158.98 162.3-197.52 11.746-5.6484 19.719-6.7305 29.812-5.0508 7.0781 1.1953 13.582-4.1523 13.773-11.332 0.03125-16.129 9.1094-32.371 28.004-44.109 3.0156 12.934 2.2773 29.848 0.0625 39.055-1.1523 4.793 0.80469 9.7969 4.8828 12.551 10.484 7.0352 15.414 16.004 20.395 28.766s9.3672 28.801 19.176 45.324l31.207 52.301c0.44531 0.89062 1.0625 1.7031 1.7422 2.4453 5.1758 5.1602 5.1758 12.793 0 17.957l-5.7578 5.9258c-5.1758 5.1602-13.129 5.1602-18.305 0l-23.188-23.359c-2.2422-2.168-5.25-3.3555-8.3633-3.3125h-20.57c-29.949 0-53.867-24.02-53.867-53.867 0-15.805-23.711-15.805-23.711 0 0 42.637 34.891 77.402 77.578 77.402h15.691l19.875 19.699c14.148 14.113 37.281 14.113 51.426 0l5.9258-5.75c14.145-14.117 14.148-37.312 0-51.426l1.7422 2.2656-31.031-52.301c-7.9258-13.355-12.016-27.512-17.609-41.84-4.7305-12.121-11.145-25.477-22.828-35.02 3.1602-19.262 0.71484-37.797-5.7656-58.074-1.7148-5.5156-7.1758-8.9883-12.902-8.1953z"/>
  <path d="m514.29 528.69c-5.6172 0.14453-10.359 4.2266-11.332 9.7617-7.7227 39.316 0.089844 71.121 10.633 100.07 5.2578 14.473 11.168 28.352 16.215 42.535v0.003907c1.0391 2.9883 3.2305 5.4375 6.0898 6.8008 2.8555 1.3633 6.1367 1.5312 9.1172 0.46094 2.9766-1.0703 5.4062-3.2891 6.7422-6.1562 1.332-2.8711 1.4648-6.1562 0.36719-9.1211-5.3359-15.02-11.23-28.824-16.215-42.535-9.9609-27.426-16.453-53.43-9.7617-87.516 0.76172-3.543-0.14062-7.2422-2.4531-10.031-2.3125-2.7891-5.7812-4.3594-9.4023-4.2656z"/>
  <path d="m257.67 322.63h448.38v318.68c-1.4375 17.07 24.977 17.07 23.535 0v-330.53c0.023437-6.4883-5.1953-11.785-11.68-11.855h-460.23z"/>
  <path d="m764.1 399.33c-6.1719 0.73438-10.719 6.1328-10.398 12.34 0.32422 6.2109 5.4062 11.105 11.621 11.195h155.85l-106.87 170.84 0.003906 0.003906c-2.4102 3.8359-2.4102 8.7109 0 12.551l106.69 170.84h-414.21c-6.043 0-10.109-4.2227-10.109-8.8906 0-2.1797 0.44531-2.5078 2.4375-4.1875 2.0156-1.6797 5.9531-3.7031 10.809-5.0508l211.12-59.098h-0.003906c5.6836-1.582 9.3281-7.1172 8.5352-12.961-0.79297-5.8477-5.7773-10.215-11.68-10.227h-412.99c-6.5469 0-11.852 5.3086-11.852 11.855s5.3047 11.855 11.852 11.855h326.87l-128.13 35.91c-6.7734 1.8828-13.699 4.4258-19.699 9.4141s-10.809 13.254-10.809 22.488c0 18.164 15.543 32.602 33.645 32.602h435.66c4.3008-0.011718 8.25-2.3633 10.316-6.1328s1.9219-8.3672-0.37891-11.996l-114.19-182.7 114.19-182.7c2.207-3.625 2.3047-8.1562 0.25-11.867-2.0547-3.7109-5.9453-6.0391-10.188-6.0898h-177.12c-0.40625-0.019532-0.81641-0.019532-1.2227 0z"/>
  <path d="m257.59 269.3c-0.46094 0.003906-0.92578 0.023437-1.3828 0.09375-6.0078 0.78125-10.453 5.9805-10.285 12.039-0.21094 216.17-0.09375 649.26-0.09375 649.26h23.707s0.51953-433.09-0.09375-649.26c0.1875-6.6641-5.1875-12.16-11.855-12.133z"/>
  <path d="m554.38 452.33c-6.5469 0-11.855 5.3047-11.855 11.852 0 6.5508 5.3086 11.855 11.855 11.855 2.3125 0 4.4883 0.80469 6.2734 2.6172 1.7852 1.7852 2.6172 3.9805 2.6172 6.2734 0 2.3047-0.80469 4.4883-2.6172 6.2734-4.6211 4.625-4.6211 12.117 0 16.738s12.113 4.6211 16.734 0c6.3086-6.3008 9.4141-14.707 9.4141-23.012 0-8.3086-3.1055-16.711-9.4141-23.012s-14.715-9.5898-23.012-9.5898z"/>
 </g>
</svg>
