<?xml version="1.0" encoding="UTF-8"?>
<svg xmlns="http://www.w3.org/2000/svg" xmlns:xlink="http://www.w3.org/1999/xlink" viewBox="0 0 841.89 1190.55">
  <defs>
    <linearGradient id="linear-gradient" x1="309.33" y1="429" x2="533.39" y2="429" gradientUnits="userSpaceOnUse">
      <stop offset="0" stop-color="#231f20"/>
      <stop offset=".4" stop-color="#fff"/>
      <stop offset=".5" stop-color="gray"/>
      <stop offset=".6" stop-color="#e6e6e6"/>
      <stop offset="1" stop-color="#1a1a1a"/>
    </linearGradient>
  </defs>
  <g style="isolation: isolate;">
    <g id="Mouth_12_gold" data-name="Mouth 12 gold">
      <g>
        <path d="M357.7,477c-7.19,0-13.04-6.58-13.04-14.67v-66.67c0-8.09,5.85-14.67,13.04-14.67h126.5c7.19,0,13.04,6.58,13.04,14.67v66.67c0,8.09-5.85,14.67-13.04,14.67h-126.5Z" style="fill: #d0b787;"/>
        <path d="M484.19,385c4.99,0,9.04,4.77,9.04,10.67v66.67c0,5.89-4.05,10.67-9.04,10.67h-126.5c-4.99,0-9.04-4.78-9.04-10.67v-66.67c0-5.89,4.05-10.67,9.04-10.67h126.5M484.19,377h-126.5c-9.39,0-17.04,8.37-17.04,18.67v66.67c0,10.29,7.64,18.67,17.04,18.67h126.5c9.39,0,17.04-8.37,17.04-18.67v-66.67c0-10.29-7.64-18.67-17.04-18.67h0Z"/>
      </g>
      <g style="mix-blend-mode: multiply;">
        <path d="M348.66,395.67c0-5.89,4.05-10.67,9.04-10.67h126.5c4.99,0,9.04,4.77,9.04,10.67v66.67c0,5.89-4.05,10.67-9.04,10.67h-126.5c-4.99,0-9.04-4.78-9.04-10.67v-66.67Z" style="fill: url(#linear-gradient);"/>
      </g>
      <path d="M493.23,462.34c-.1,2.63-1.01,5.09-2.52,6.94-1.49,1.86-3.64,3.07-5.84,3.19-.53.03-1.12,0-1.7-.01l-1.74-.05c-1.16-.03-2.31-.06-3.46-.09-2.31-.05-4.61-.11-6.94-.16-9.34-.2-19.2-.3-31.77-.31-6.81,0-20.45,0-37.08,0-8.31,0-17.37,0-26.7,0-4.66,0-9.39,0-14.13,0h-3.55c-1.03,0-2.01-.22-2.93-.65-1.84-.86-3.29-2.54-4.12-4.47-.43-.96-.69-2-.81-3.04-.08-.53-.07-1.03-.09-1.6v-1.74c0-2.31,0-4.6,0-6.86,0-4.52,0-8.93,0-13.17,0-8.47,0-16.26,0-22.87,0-13.22,0-21.75,0-21.75,0,0,0-.12.02-.36.02-.23,0-.59.08-1.04.1-.9.37-2.24,1.17-3.74.78-1.47,2.18-3.16,4.34-3.96,1.09-.41,2.2-.42,3.79-.4,1.5,0,3.08,0,4.73,0,13.22,0,31.13,0,49.89,0,18.76,0,38.37,0,55,0,4.16,0,8.13,0,11.85,0,.93,0,1.85,0,2.74,0,.96-.02,1.6.03,2.35.2,1.42.37,2.68,1.17,3.62,2.2,1.93,2.06,2.64,4.75,2.66,6.99,0,2.49,0,4.62,0,6.32.02,25.16.42,39.43,1.17,60.45.75-21.02,1.15-35.29,1.17-60.45,0-1.71,0-3.84,0-6.34-.02-2.69-.85-5.96-3.28-8.58-1.19-1.31-2.84-2.38-4.77-2.88-.49-.09-.98-.22-1.49-.23-.25-.01-.52-.04-.75-.04h-.67c-.9,0-1.81,0-2.74,0-3.72,0-7.69,0-11.85,0-16.62,0-36.24,0-55,0-18.76,0-36.67,0-49.89,0-1.65,0-3.23,0-4.73,0-.77,0-1.42-.03-2.28.04-.81.06-1.58.26-2.31.5-2.89,1.08-4.63,3.24-5.6,5.05-.98,1.85-1.3,3.48-1.43,4.56-.09.54-.08.97-.1,1.25-.01.28-.02.43-.02.43,0,0,0,8.53,0,21.75,0,6.61,0,14.39,0,22.87,0,4.24,0,8.65,0,13.17,0,2.26,0,4.55,0,6.86v1.74c.01.58.01,1.26.1,1.88.14,1.27.46,2.52.98,3.71,1.02,2.36,2.82,4.5,5.28,5.67,1.21.58,2.6.88,3.94.88h3.55c4.74,0,9.47,0,14.13,0,9.33,0,18.39,0,26.7,0,16.63,0,30.26,0,37.08,0,12.58,0,22.43-.11,31.77-.31,2.33-.06,4.64-.11,6.94-.16,1.15-.03,2.3-.06,3.46-.09l1.74-.05c.58-.01,1.16-.03,1.8-.1,2.5-.29,4.74-1.8,6.17-3.85,1.45-2.06,2.18-4.64,2.1-7.26Z" style="fill: #fff;"/>
      <path d="M354.25,467.89l4.26-4.26c-1.2-.7-2.75-.54-3.78.48-1.02,1.03-1.18,2.58-.48,3.78ZM359.64,464.75l-4.26,4.26c1.2.7,2.76.55,3.78-.48,1.03-1.02,1.18-2.58.48-3.78Z"/>
      <path d="M418.25,467.89l4.26-4.26c-1.2-.7-2.75-.54-3.78.48-1.02,1.03-1.18,2.58-.48,3.78ZM423.64,464.75l-4.26,4.26c1.2.7,2.76.55,3.78-.48,1.03-1.02,1.18-2.58.48-3.78Z"/>
      <path d="M483.38,463.63l4.26,4.26c.7-1.2.54-2.75-.48-3.78-1.03-1.02-2.58-1.18-3.78-.48ZM486.51,469.01l-4.26-4.26c-.7,1.2-.55,2.76.48,3.78,1.02,1.03,2.58,1.18,3.78.48Z"/>
      <path d="M487.64,390.76l-4.26,4.26c1.2.7,2.75.54,3.78-.48,1.02-1.03,1.18-2.58.48-3.78ZM482.25,393.89l4.26-4.26c-1.2-.7-2.76-.55-3.78.48-1.03,1.02-1.18,2.58-.48,3.78Z"/>
      <path d="M358.51,395.02l-4.26-4.26c-.7,1.2-.54,2.75.48,3.78,1.03,1.02,2.58,1.18,3.78.48ZM355.38,389.63l4.26,4.26c.7-1.2.55-2.76-.48-3.78-1.02-1.03-2.58-1.18-3.78-.48Z"/>
      <path d="M423.96,393.12h-6.02c.36,1.34,1.56,2.33,3.01,2.33,1.45,0,2.66-.99,3.01-2.33ZM417.93,391.52h6.03c-.36-1.34-1.56-2.33-3.01-2.33-1.45,0-2.66.99-3.02,2.33Z"/>
      <g>
        <rect x="358.94" y="398.9" width="124.02" height="7.17" rx="3.59" ry="3.59"/>
        <rect x="358.94" y="412.18" width="124.02" height="7.17" rx="3.59" ry="3.59"/>
        <rect x="358.94" y="425.45" width="124.02" height="7.17" rx="3.59" ry="3.59"/>
        <rect x="358.94" y="438.73" width="124.02" height="7.17" rx="3.59" ry="3.59"/>
        <rect x="358.94" y="452" width="124.02" height="7.17" rx="3.59" ry="3.59"/>
      </g>
    </g>
  </g>
</svg>