<?xml version="1.0" encoding="UTF-8"?>
<svg xmlns="http://www.w3.org/2000/svg" xmlns:xlink="http://www.w3.org/1999/xlink" viewBox="0 0 841.89 1190.55">
  <defs>
    <linearGradient id="linear-gradient" x1="420.94" y1="321" x2="420.94" y2="178.37" gradientTransform="translate(485.93 -220) rotate(63.43)" gradientUnits="userSpaceOnUse">
      <stop offset="0" stop-color="#1a1a1a"/>
      <stop offset="1" stop-color="#d0b787"/>
    </linearGradient>
    <linearGradient id="linear-gradient-2" x1="420.94" y1="263.16" x2="420.94" y2="233.2" gradientTransform="matrix(1,0,0,1,0,0)" xlink:href="#linear-gradient"/>
    <linearGradient id="linear-gradient-3" x1="309.52" y1="376.55" x2="227.51" y2="376.55" gradientTransform="translate(.2 -.22) rotate(.03)" xlink:href="#linear-gradient"/>
    <linearGradient id="linear-gradient-4" x1="532.02" y1="376.54" x2="613.53" y2="376.54" gradientTransform="translate(.2 -.22) rotate(.03)" xlink:href="#linear-gradient"/>
    <linearGradient id="linear-gradient-5" x1="285.87" y1="376.58" x2="265.43" y2="376.58" gradientTransform="matrix(1,0,0,1,0,0)" xlink:href="#linear-gradient"/>
    <linearGradient id="linear-gradient-6" x1="556.04" y1="376.58" x2="577.31" y2="376.58" gradientTransform="matrix(1,0,0,1,0,0)" xlink:href="#linear-gradient"/>
    <linearGradient id="linear-gradient-7" x1="420.94" y1="566.85" x2="420.94" y2="543.14" gradientTransform="matrix(1,0,0,1,0,0)" xlink:href="#linear-gradient"/>
    <linearGradient id="linear-gradient-8" x1="420.95" y1="542.49" x2="420.95" y2="523.52" gradientTransform="matrix(1,0,0,1,0,0)" xlink:href="#linear-gradient"/>
    <linearGradient id="linear-gradient-9" x1="420.94" y1="523.49" x2="420.94" y2="499.43" gradientTransform="matrix(1,0,0,1,0,0)" xlink:href="#linear-gradient"/>
    <linearGradient id="linear-gradient-10" x1="420.94" y1="508.31" x2="420.94" y2="491.03" gradientTransform="matrix(1,0,0,1,0,0)" xlink:href="#linear-gradient"/>
    <linearGradient id="linear-gradient-11" x1="420.94" y1="211.74" x2="420.94" y2="546.54" gradientUnits="userSpaceOnUse">
      <stop offset="0" stop-color="#231f20"/>
      <stop offset=".4" stop-color="#fff"/>
      <stop offset=".6" stop-color="#fff"/>
      <stop offset="1" stop-color="#1a1a1a"/>
    </linearGradient>
  </defs>
  <g style="isolation: isolate;">
    <g id="Head_10_Silver" data-name="Head 10 Silver">
      <g>
        <path d="M420.95,359.93c-42.35,0-76.8-34.45-76.8-76.8s34.45-76.8,76.8-76.8,76.8,34.45,76.8,76.8-34.45,76.8-76.8,76.8Z" style="fill: #fff100;"/>
        <path d="M420.95,210.33c40.21,0,72.8,32.59,72.8,72.8s-32.59,72.8-72.8,72.8-72.8-32.59-72.8-72.8,32.59-72.8,72.8-72.8M420.95,202.33c-44.55,0-80.8,36.25-80.8,80.8s36.25,80.8,80.8,80.8,80.8-36.25,80.8-80.8-36.25-80.8-80.8-80.8h0Z"/>
      </g>
      <g style="mix-blend-mode: multiply;">
        <circle cx="420.95" cy="283.13" r="72.8" transform="translate(-20.55 533.01) rotate(-63.43)" style="fill: url(#linear-gradient);"/>
      </g>
      <g>
        <path d="M350.96,321.84c-13.46,0-24.01-7.31-24.01-16.64v-52.01c0-9.33,10.55-16.64,24.01-16.64h139.98c13.46,0,24.01,7.31,24.01,16.64v52.01c0,9.33-10.55,16.64-24.01,16.64h-139.98Z" style="fill: #e6e6e6;"/>
        <path d="M490.93,240.55c11.05,0,20.01,5.66,20.01,12.64v52.01c0,6.98-8.96,12.64-20.01,12.64h-139.98c-11.05,0-20.01-5.66-20.01-12.64v-52.01c0-6.98,8.96-12.64,20.01-12.64h139.98M490.93,232.55h-139.98c-15.71,0-28.01,9.07-28.01,20.64v52.01c0,11.58,12.3,20.64,28.01,20.64h139.98c15.71,0,28.01-9.07,28.01-20.64v-52.01c0-11.57-12.3-20.64-28.01-20.64h0Z"/>
      </g>
      <g style="mix-blend-mode: multiply;">
        <path d="M510.95,305.2c0,6.98-8.96,12.64-20.01,12.64h-139.98c-11.05,0-20.01-5.66-20.01-12.64v-52.01c0-6.98,8.96-12.64,20.01-12.64h139.98c11.05,0,20.01,5.66,20.01,12.64v52.01Z" style="fill: url(#linear-gradient-2);"/>
      </g>
      <g>
        <g>
          <path d="M286.07,418.81c-23.28,0-42.23-18.94-42.23-42.23s18.94-42.23,42.23-42.23,42.23,18.94,42.23,42.23-18.94,42.23-42.23,42.23Z" style="fill: #fff100;"/>
          <path d="M286.07,338.35c21.11,0,38.23,17.12,38.23,38.23s-17.11,38.23-38.23,38.23-38.23-17.12-38.23-38.23,17.11-38.23,38.23-38.23M286.07,330.35c-25.49,0-46.23,20.74-46.23,46.23s20.74,46.23,46.23,46.23,46.23-20.74,46.23-46.23-20.74-46.23-46.23-46.23h0Z"/>
        </g>
        <g style="mix-blend-mode: multiply;">
          <path d="M324.3,376.53c-.01,21.11-17.14,38.22-38.25,38.2-21.11-.01-38.22-17.14-38.2-38.25s17.14-38.22,38.25-38.21c21.11.01,38.22,17.14,38.2,38.25Z" style="fill: url(#linear-gradient-3);"/>
        </g>
        <g>
          <path d="M555.82,418.81c-23.29,0-42.23-18.94-42.23-42.23s18.94-42.23,42.23-42.23,42.23,18.94,42.23,42.23-18.94,42.23-42.23,42.23Z" style="fill: #fff100;"/>
          <path d="M555.82,338.35c21.11,0,38.23,17.12,38.23,38.23s-17.11,38.23-38.23,38.23-38.23-17.12-38.23-38.23,17.12-38.23,38.23-38.23M555.82,330.35c-25.49,0-46.23,20.74-46.23,46.23s20.74,46.23,46.23,46.23,46.23-20.74,46.23-46.23-20.74-46.23-46.23-46.23h0Z"/>
        </g>
        <g style="mix-blend-mode: multiply;">
          <path d="M594.04,376.68c-.01,21.11-17.14,38.22-38.25,38.2-21.11-.01-38.22-17.14-38.21-38.25.01-21.11,17.14-38.22,38.25-38.21,21.11.01,38.22,17.14,38.2,38.25Z" style="fill: url(#linear-gradient-4);"/>
        </g>
      </g>
      <g>
        <g>
          <path d="M276.03,425.58c-5.74,0-10.23-6.15-10.23-14.01v-69.99c0-7.85,4.49-14.01,10.23-14.01h25.63c5.74,0,10.23,6.15,10.23,14.01v69.99c0,7.85-4.49,14.01-10.23,14.01h-25.63Z" style="fill: #e6e6e6;"/>
          <path d="M301.66,331.58c3.44,0,6.23,4.48,6.23,10.01v69.99c0,5.53-2.79,10.01-6.23,10.01h-25.63c-3.44,0-6.23-4.48-6.23-10.01v-69.99c0-5.53,2.79-10.01,6.23-10.01h25.63M301.66,323.58h-25.63c-7.98,0-14.23,7.91-14.23,18.01v69.99c0,10.1,6.25,18.01,14.23,18.01h25.63c7.98,0,14.23-7.91,14.23-18.01v-69.99c0-10.1-6.25-18.01-14.23-18.01h0Z"/>
        </g>
        <g>
          <path d="M540.23,425.58c-5.74,0-10.23-6.15-10.23-14.01v-69.99c0-7.85,4.49-14.01,10.23-14.01h25.63c5.74,0,10.23,6.15,10.23,14.01v69.99c0,7.85-4.49,14.01-10.23,14.01h-25.63Z" style="fill: #e6e6e6;"/>
          <path d="M565.86,331.58c3.44,0,6.23,4.48,6.23,10.01v69.99c0,5.53-2.79,10.01-6.23,10.01h-25.63c-3.44,0-6.23-4.48-6.23-10.01v-69.99c0-5.53,2.79-10.01,6.23-10.01h25.63M565.86,323.58h-25.63c-7.98,0-14.23,7.91-14.23,18.01v69.99c0,10.1,6.25,18.01,14.23,18.01h25.63c7.98,0,14.23-7.91,14.23-18.01v-69.99c0-10.1-6.25-18.01-14.23-18.01h0Z"/>
        </g>
        <g style="mix-blend-mode: multiply;">
          <path d="M301.66,421.58c3.44,0,6.23-4.48,6.23-10.01v-69.99c0-5.53-2.79-10.01-6.23-10.01h-25.63c-3.44,0-6.23,4.48-6.23,10.01v69.99c0,5.53,2.79,10.01,6.23,10.01h25.63Z" style="fill: url(#linear-gradient-5);"/>
        </g>
        <g style="mix-blend-mode: multiply;">
          <path d="M540.23,421.58c-3.44,0-6.23-4.48-6.23-10.01v-69.99c0-5.53,2.79-10.01,6.23-10.01h25.63c3.44,0,6.23,4.48,6.23,10.01v69.99c0,5.53-2.79,10.01-6.23,10.01h-25.63Z" style="fill: url(#linear-gradient-6);"/>
        </g>
      </g>
      <path d="M530.56,389.28c0,13.58-10.91,24.59-24.37,24.59h-170.49c-13.46,0-24.37-11.01-24.37-24.59v-101.16c0-13.58,10.91-24.59,24.37-24.59h170.49c13.46,0,24.37,11.01,24.37,24.59v101.16Z" style="fill: #e6e6e6; stroke: #000; stroke-linecap: round; stroke-linejoin: round; stroke-width: 7.82px;"/>
      <g>
        <g>
          <path d="M420.94,566.13c-25.7,0-51.63-1.92-77.05-5.71-4.69-.7-8.89-3.19-11.51-6.83-2.3-3.21-3.2-7.02-2.54-10.74,1.28-7.17,7.94-12.37,15.84-12.37.88,0,1.77.07,2.64.2,23.96,3.57,48.39,5.38,72.62,5.38s48.66-1.81,72.62-5.38c.88-.13,1.76-.2,2.64-.2,7.89,0,14.55,5.2,15.84,12.37.67,3.72-.23,7.53-2.54,10.74-2.62,3.64-6.81,6.13-11.51,6.83-25.42,3.79-51.35,5.71-77.05,5.71Z" style="fill: #e6e6e6;"/>
          <path d="M496.2,534.38c5.87,0,11.02,3.73,11.99,9.15,1.08,6.05-3.73,11.97-10.77,13.02-25.35,3.78-50.91,5.67-76.48,5.67s-51.12-1.89-76.47-5.67c-7.04-1.05-11.86-6.97-10.77-13.02.97-5.43,6.12-9.15,11.99-9.15.68,0,1.37.05,2.06.15,24.26,3.62,48.73,5.43,73.19,5.43s48.93-1.81,73.19-5.43c.69-.1,1.38-.15,2.06-.15M496.2,526.56h0c-1.07,0-2.15.08-3.21.24-23.77,3.54-48.01,5.34-72.04,5.34s-48.27-1.8-72.04-5.34c-1.07-.16-2.15-.24-3.22-.24-9.79,0-18.07,6.56-19.68,15.59-.85,4.77.29,9.64,3.21,13.71,3.23,4.5,8.37,7.57,14.1,8.42,25.61,3.82,51.73,5.75,77.63,5.75s52.01-1.94,77.63-5.76c5.73-.85,10.87-3.92,14.1-8.42,2.93-4.07,4.07-8.94,3.21-13.71-1.62-9.03-9.9-15.59-19.68-15.59h0Z"/>
        </g>
        <path d="M508.16,543.53c1.07,6.05-3.75,11.98-10.79,13.05-50.67,7.68-102.18,7.68-152.85,0-7.04-1.06-11.86-7-10.79-13.05h0c1.07-6.05,7.34-9.98,14.02-8.97,48.53,7.35,97.86,7.35,146.38,0,6.69-1.01,12.96,2.91,14.02,8.97h0Z" style="fill: url(#linear-gradient-7); mix-blend-mode: multiply;"/>
        <g>
          <path d="M420.94,543.49c-23.15,0-46.5-1.73-69.4-5.15-4.33-.64-8.2-2.94-10.61-6.31-2.14-2.97-2.97-6.51-2.35-9.96,1.19-6.64,7.35-11.46,14.64-11.46.81,0,1.63.06,2.43.18,21.55,3.21,43.52,4.84,65.3,4.84s43.75-1.63,65.3-4.84c.81-.12,1.62-.18,2.43-.18,7.29,0,13.45,4.82,14.64,11.46.62,3.45-.22,6.99-2.35,9.96-2.42,3.37-6.29,5.67-10.62,6.31-22.9,3.41-46.25,5.15-69.4,5.15Z" style="fill: #e6e6e6;"/>
          <path d="M488.67,514.53c5.28,0,9.92,3.36,10.79,8.24h0,0c.98,5.44-3.35,10.77-9.7,11.72-22.81,3.4-45.82,5.1-68.83,5.1s-46.01-1.7-68.83-5.1c-6.34-.94-10.67-6.27-9.69-11.72.88-4.88,5.51-8.24,10.79-8.24.61,0,1.23.04,1.86.14,21.84,3.26,43.85,4.88,65.87,4.88s44.04-1.63,65.87-4.88c.62-.09,1.25-.14,1.86-.14M488.67,506.71c-1,0-2.01.08-3.01.22-21.36,3.18-43.13,4.8-64.72,4.8s-43.37-1.61-64.72-4.8c-1-.15-2.01-.22-3.01-.22-9.19,0-16.96,6.17-18.49,14.68-.81,4.5.27,9.09,3.02,12.93,3.03,4.22,7.85,7.09,13.21,7.89,23.09,3.44,46.63,5.19,69.98,5.19s46.89-1.75,69.98-5.19c5.37-.8,10.18-3.68,13.21-7.89,2.76-3.84,3.83-8.43,3.02-12.93-1.52-8.5-9.3-14.68-18.49-14.68h0Z"/>
        </g>
        <path d="M499.44,522.77c.96,5.44-3.38,10.79-9.71,11.75-45.6,6.91-91.96,6.91-137.56,0-6.34-.96-10.68-6.3-9.71-11.75h0c.96-5.45,6.6-8.98,12.62-8.07,43.67,6.62,88.07,6.62,131.75,0,6.02-.91,11.66,2.62,12.62,8.07h0Z" style="fill: url(#linear-gradient-8); mix-blend-mode: multiply;"/>
        <g>
          <path d="M420.95,523.79c-20.85,0-41.89-1.56-62.52-4.63-4-.59-7.58-2.72-9.81-5.84-1.98-2.76-2.76-6.05-2.18-9.26,1.1-6.16,6.81-10.63,13.56-10.63.75,0,1.5.06,2.25.17,19.37,2.89,39.13,4.35,58.71,4.35s39.34-1.46,58.71-4.35c.75-.11,1.5-.17,2.25-.17,6.75,0,12.46,4.47,13.56,10.63.58,3.21-.2,6.5-2.18,9.26-2.24,3.11-5.81,5.24-9.81,5.84-20.62,3.08-41.66,4.63-62.52,4.63Z" style="fill: #e6e6e6;"/>
          <path d="M359.99,497.33c.55,0,1.11.04,1.67.12,19.65,2.93,39.47,4.4,59.29,4.4s39.63-1.47,59.29-4.4c.56-.08,1.12-.12,1.67-.12,4.76,0,8.93,3.02,9.71,7.42.88,4.9-3.02,9.69-8.73,10.54-20.53,3.06-41.24,4.59-61.94,4.59s-41.41-1.53-61.95-4.59c-5.71-.85-9.6-5.64-8.73-10.54h0s0,0,0,0c.79-4.4,4.96-7.42,9.71-7.42M491.62,504.74h0s0,0,0,0M359.99,489.51c-8.65,0-15.97,5.83-17.41,13.85-.76,4.26.25,8.6,2.86,12.23,2.85,3.97,7.37,6.67,12.41,7.42,20.82,3.1,42.05,4.68,63.1,4.68s42.28-1.57,63.1-4.68c5.04-.75,9.56-3.46,12.41-7.42,2.61-3.63,3.62-7.97,2.86-12.23-1.44-8.03-8.76-13.85-17.41-13.85-.94,0-1.89.07-2.82.21-19.18,2.86-38.74,4.31-58.14,4.31s-38.95-1.45-58.13-4.31c-.94-.14-1.89-.21-2.82-.21h0Z"/>
        </g>
        <path d="M491.59,504.74c.87,4.9-3.04,9.71-8.74,10.57-41.04,6.22-82.76,6.22-123.81,0-5.7-.86-9.61-5.67-8.74-10.57h0c.87-4.9,5.94-8.08,11.36-7.27,39.31,5.96,79.27,5.96,118.57,0,5.42-.82,10.5,2.36,11.36,7.27h0Z" style="fill: url(#linear-gradient-9); mix-blend-mode: multiply;"/>
        <g>
          <path d="M420.94,504c-18.79,0-37.74-1.4-56.33-4.18-3.7-.55-7.02-2.52-9.09-5.41-1.85-2.57-2.57-5.64-2.03-8.64,1.03-5.73,6.32-9.89,12.59-9.89.69,0,1.39.05,2.08.15,17.42,2.6,35.17,3.91,52.78,3.91s35.37-1.32,52.78-3.91c.69-.1,1.39-.15,2.08-.15,6.27,0,11.56,4.16,12.59,9.89.54,3-.18,6.06-2.03,8.64-2.07,2.89-5.39,4.86-9.09,5.41-18.58,2.77-37.54,4.18-56.33,4.18Z" style="fill: #e6e6e6;"/>
          <path d="M366.08,479.79c.5,0,1,.04,1.5.11,17.69,2.64,35.52,3.96,53.36,3.96s35.67-1.32,53.36-3.96c.51-.08,1.01-.11,1.5-.11,4.28,0,8.03,2.72,8.74,6.67h0c.79,4.41-2.72,8.73-7.85,9.49-18.48,2.76-37.12,4.13-55.75,4.13s-37.27-1.38-55.75-4.13c-5.14-.76-8.64-5.08-7.85-9.49.71-3.96,4.46-6.67,8.74-6.67M366.08,471.97c-8.16,0-15.07,5.51-16.44,13.11-.73,4.04.24,8.17,2.71,11.6,2.69,3.74,6.95,6.29,11.69,7,18.77,2.8,37.92,4.22,56.9,4.22s38.13-1.42,56.9-4.22c4.74-.7,9-3.25,11.69-7,2.47-3.44,3.43-7.56,2.7-11.61-1.36-7.6-8.27-13.11-16.43-13.11-.88,0-1.78.07-2.65.2-17.23,2.57-34.79,3.87-52.21,3.87s-34.98-1.3-52.2-3.87c-.88-.13-1.77-.2-2.66-.2h0Z"/>
        </g>
        <path d="M484.53,486.46c.78,4.41-2.74,8.74-7.87,9.51-36.94,5.6-74.49,5.6-111.42,0-5.13-.78-8.65-5.1-7.87-9.51h0c.78-4.41,5.35-7.28,10.22-6.54,35.38,5.36,71.34,5.36,106.71,0,4.88-.74,9.45,2.12,10.22,6.54h0Z" style="fill: url(#linear-gradient-10); mix-blend-mode: multiply;"/>
      </g>
      <g>
        <path d="M318.34,504.2c-18.38,0-33.34-14.23-33.34-31.73v-180.72c0-17.49,14.96-31.73,33.34-31.73h205.21c18.38,0,33.34,14.23,33.34,31.73v180.72c0,17.49-14.95,31.73-33.34,31.73h-205.21Z" style="fill: #e6e6e6;"/>
        <path d="M523.55,264.03c16.2,0,29.34,12.41,29.34,27.73v180.72c0,15.31-13.13,27.73-29.34,27.73h-205.21c-16.2,0-29.34-12.41-29.34-27.73v-180.72c0-15.31,13.13-27.73,29.34-27.73h205.21M523.55,256.03h-205.21c-20.59,0-37.34,16.03-37.34,35.73v180.72c0,19.7,16.75,35.73,37.34,35.73h205.21c20.59,0,37.34-16.03,37.34-35.73v-180.72c0-19.7-16.75-35.73-37.34-35.73h0Z"/>
      </g>
      <g style="mix-blend-mode: multiply;">
        <path d="M523.55,264.03h-205.21c-16.2,0-29.34,12.41-29.34,27.73v180.72c0,15.31,13.13,27.73,29.34,27.73h205.21c16.2,0,29.34-12.41,29.34-27.73v-180.72c0-15.31-13.13-27.73-29.34-27.73Z" style="fill: url(#linear-gradient-11);"/>
      </g>
      <g>
        <g>
          <line x1="287.99" y1="458.42" x2="553.9" y2="458.42" style="fill: none; stroke: #000; stroke-linecap: round; stroke-linejoin: round; stroke-width: 8px;"/>
          <path d="M284.69,454.73c12.78.75,21.45,1.15,36.74,1.17,16.56.02,99.51,0,99.51,0,0,0,82.95.02,99.51,0,15.29-.02,23.97-.42,36.74-1.17-12.78-.75-21.45-1.15-36.74-1.17-16.56-.02-99.51,0-99.51,0,0,0-82.95-.02-99.51,0-15.29.02-23.96.42-36.74,1.17Z" style="fill: #fff;"/>
        </g>
        <g>
          <line x1="287.99" y1="458.42" x2="553.9" y2="458.42" style="fill: none; stroke: #000; stroke-linecap: round; stroke-linejoin: round; stroke-width: 8px;"/>
          <path d="M284.69,454.73c12.78.75,21.45,1.15,36.74,1.17,16.56.02,99.51,0,99.51,0,0,0,82.95.02,99.51,0,15.29-.02,23.97-.42,36.74-1.17-12.78-.75-21.45-1.15-36.74-1.17-16.56-.02-99.51,0-99.51,0,0,0-82.95-.02-99.51,0-15.29.02-23.96.42-36.74,1.17Z" style="fill: #fff;"/>
        </g>
        <g>
          <line x1="287.99" y1="408.6" x2="553.9" y2="408.6" style="fill: none; stroke: #000; stroke-linecap: round; stroke-linejoin: round; stroke-width: 8px;"/>
          <path d="M284.69,404.9c12.78.75,21.45,1.15,36.74,1.17,16.56.02,99.51,0,99.51,0,0,0,82.95.02,99.51,0,15.29-.02,23.97-.42,36.74-1.17-12.78-.75-21.45-1.15-36.74-1.17-16.56-.02-99.51,0-99.51,0,0,0-82.95-.02-99.51,0-15.29.02-23.96.42-36.74,1.17Z" style="fill: #fff;"/>
        </g>
        <g>
          <line x1="287.99" y1="408.6" x2="553.9" y2="408.6" style="fill: none; stroke: #000; stroke-linecap: round; stroke-linejoin: round; stroke-width: 8px;"/>
          <path d="M284.69,404.9c12.78.75,21.45,1.15,36.74,1.17,16.56.02,99.51,0,99.51,0,0,0,82.95.02,99.51,0,15.29-.02,23.97-.42,36.74-1.17-12.78-.75-21.45-1.15-36.74-1.17-16.56-.02-99.51,0-99.51,0,0,0-82.95-.02-99.51,0-15.29.02-23.96.42-36.74,1.17Z" style="fill: #fff;"/>
        </g>
        <g>
          <line x1="287.99" y1="358.77" x2="553.9" y2="358.77" style="fill: none; stroke: #000; stroke-linecap: round; stroke-linejoin: round; stroke-width: 8px;"/>
          <path d="M284.69,355.08c12.78.75,21.45,1.15,36.74,1.17,16.56.02,99.51,0,99.51,0,0,0,82.95.02,99.51,0,15.29-.02,23.97-.42,36.74-1.17-12.78-.75-21.45-1.15-36.74-1.17-16.56-.02-99.51,0-99.51,0,0,0-82.95-.02-99.51,0-15.29.02-23.96.42-36.74,1.17Z" style="fill: #fff;"/>
        </g>
        <g>
          <line x1="287.99" y1="358.77" x2="553.9" y2="358.77" style="fill: none; stroke: #000; stroke-linecap: round; stroke-linejoin: round; stroke-width: 8px;"/>
          <path d="M284.69,355.08c12.78.75,21.45,1.15,36.74,1.17,16.56.02,99.51,0,99.51,0,0,0,82.95.02,99.51,0,15.29-.02,23.97-.42,36.74-1.17-12.78-.75-21.45-1.15-36.74-1.17-16.56-.02-99.51,0-99.51,0,0,0-82.95-.02-99.51,0-15.29.02-23.96.42-36.74,1.17Z" style="fill: #fff;"/>
        </g>
        <g>
          <line x1="291.69" y1="308.94" x2="550.21" y2="308.94" style="fill: none; stroke: #000; stroke-linecap: round; stroke-linejoin: round; stroke-width: 8px;"/>
          <path d="M288.48,305.25c12.42.75,20.85,1.15,35.72,1.17,16.1.02,96.75,0,96.75,0,0,0,80.64.02,96.75,0,14.87-.02,23.3-.42,35.72-1.17-12.42-.75-20.85-1.15-35.72-1.17-16.1-.02-96.75,0-96.75,0,0,0-80.64-.02-96.75,0-14.87.02-23.3.42-35.72,1.17Z" style="fill: #fff;"/>
        </g>
      </g>
      <g>
        <g>
          <path d="M396.85,326c0,23.5-19.04,42.55-42.54,42.55s-42.54-19.05-42.54-42.55,19.05-42.55,42.54-42.55,42.54,19.05,42.54,42.55Z" style="fill: #fff100; stroke: #000; stroke-width: 6px;"/>
          <path d="M391.15,326c0,20.35-16.49,36.84-36.84,36.84s-36.84-16.5-36.84-36.84,16.49-36.84,36.84-36.84,36.84,16.5,36.84,36.84Z"/>
          <path d="M382.46,326c0,15.55-12.61,28.15-28.15,28.15s-28.15-12.6-28.15-28.15,12.61-28.15,28.15-28.15,28.15,12.61,28.15,28.15Z" style="fill: #e6e6e6;"/>
          <g>
            <path d="M319.78,326s13.12,14.91,34.66,0c21.53-14.91,34.39,0,34.39,0" style="fill: none; stroke: #231f20; stroke-linecap: round; stroke-linejoin: round; stroke-width: 3.36px;"/>
            <path d="M337.05,355.9s19.46-3.92,17.33-30.01c-2.14-26.1,17.2-29.79,17.2-29.79" style="fill: none; stroke: #231f20; stroke-linecap: round; stroke-linejoin: round; stroke-width: 3.36px;"/>
            <path d="M371.58,355.9s6.34-18.83-17.33-30.01c-23.67-11.19-17.19-29.79-17.19-29.79" style="fill: none; stroke: #231f20; stroke-linecap: round; stroke-linejoin: round; stroke-width: 3.36px;"/>
            <path d="M371.58,355.9s6.34-18.83-17.33-30.01c-23.67-11.19-17.19-29.79-17.19-29.79" style="fill: none; stroke: #231f20; stroke-linecap: round; stroke-linejoin: round; stroke-width: 3.36px;"/>
          </g>
          <g>
            <path d="M324.41,343.26s18.82,6.34,30.02-17.32c11.19-23.67,29.79-17.2,29.79-17.2" style="fill: none; stroke: #231f20; stroke-linecap: round; stroke-linejoin: round; stroke-width: 3.36px;"/>
            <path d="M354.31,360.53s14.91-13.13,0-34.66c-14.91-21.53,0-34.4,0-34.4" style="fill: none; stroke: #231f20; stroke-linecap: round; stroke-linejoin: round; stroke-width: 3.36px;"/>
            <path d="M384.22,343.26s-3.92-19.47-30.02-17.32c-26.1,2.13-29.79-17.2-29.79-17.2" style="fill: none; stroke: #231f20; stroke-linecap: round; stroke-linejoin: round; stroke-width: 3.36px;"/>
            <path d="M384.22,343.26s-3.92-19.47-30.02-17.32c-26.1,2.13-29.79-17.2-29.79-17.2" style="fill: none; stroke: #231f20; stroke-linecap: round; stroke-linejoin: round; stroke-width: 3.36px;"/>
          </g>
          <g>
            <path d="M368.74,326c0,7.96-6.46,14.42-14.43,14.42s-14.42-6.45-14.42-14.42,6.46-14.42,14.42-14.42,14.43,6.45,14.43,14.42Z"/>
            <path d="M361.94,326c0,4.22-3.41,7.64-7.63,7.64s-7.63-3.42-7.63-7.64,3.41-7.63,7.63-7.63,7.63,3.41,7.63,7.63Z" style="fill: #fff100;"/>
          </g>
        </g>
        <g>
          <path d="M530.12,326c0,23.5-19.04,42.55-42.54,42.55s-42.54-19.05-42.54-42.55,19.05-42.55,42.54-42.55,42.54,19.05,42.54,42.55Z" style="fill: #fff100; stroke: #000; stroke-width: 6px;"/>
          <path d="M524.41,326c0,20.35-16.49,36.84-36.84,36.84s-36.84-16.5-36.84-36.84,16.49-36.84,36.84-36.84,36.84,16.5,36.84,36.84Z"/>
          <path d="M515.73,326c0,15.55-12.61,28.15-28.15,28.15s-28.15-12.6-28.15-28.15,12.61-28.15,28.15-28.15,28.15,12.61,28.15,28.15Z" style="fill: #e6e6e6;"/>
          <g>
            <path d="M453.05,326s13.12,14.91,34.66,0c21.53-14.91,34.39,0,34.39,0" style="fill: none; stroke: #231f20; stroke-linecap: round; stroke-linejoin: round; stroke-width: 3.36px;"/>
            <path d="M470.32,355.9s19.46-3.92,17.33-30.01c-2.14-26.1,17.2-29.79,17.2-29.79" style="fill: none; stroke: #231f20; stroke-linecap: round; stroke-linejoin: round; stroke-width: 3.36px;"/>
            <path d="M504.85,355.9s6.34-18.83-17.33-30.01c-23.67-11.19-17.2-29.79-17.2-29.79" style="fill: none; stroke: #231f20; stroke-linecap: round; stroke-linejoin: round; stroke-width: 3.36px;"/>
            <path d="M504.85,355.9s6.34-18.83-17.33-30.01c-23.67-11.19-17.2-29.79-17.2-29.79" style="fill: none; stroke: #231f20; stroke-linecap: round; stroke-linejoin: round; stroke-width: 3.36px;"/>
          </g>
          <g>
            <path d="M457.68,343.26s18.82,6.34,30.02-17.32c11.19-23.67,29.79-17.2,29.79-17.2" style="fill: none; stroke: #231f20; stroke-linecap: round; stroke-linejoin: round; stroke-width: 3.36px;"/>
            <path d="M487.58,360.53s14.91-13.13,0-34.66c-14.91-21.53,0-34.4,0-34.4" style="fill: none; stroke: #231f20; stroke-linecap: round; stroke-linejoin: round; stroke-width: 3.36px;"/>
            <path d="M517.48,343.26s-3.92-19.47-30.02-17.32c-26.1,2.13-29.79-17.2-29.79-17.2" style="fill: none; stroke: #231f20; stroke-linecap: round; stroke-linejoin: round; stroke-width: 3.36px;"/>
            <path d="M517.48,343.26s-3.92-19.47-30.02-17.32c-26.1,2.13-29.79-17.2-29.79-17.2" style="fill: none; stroke: #231f20; stroke-linecap: round; stroke-linejoin: round; stroke-width: 3.36px;"/>
          </g>
          <g>
            <path d="M502,326c0,7.96-6.46,14.42-14.43,14.42s-14.42-6.45-14.42-14.42,6.46-14.42,14.42-14.42,14.43,6.45,14.43,14.42Z"/>
            <path d="M495.21,326c0,4.22-3.41,7.64-7.63,7.64s-7.63-3.42-7.63-7.64,3.41-7.63,7.63-7.63,7.63,3.41,7.63,7.63Z" style="fill: #fff100;"/>
          </g>
        </g>
      </g>
      <g>
        <path d="M301.93,483.73l8.32-8.32c-2.34-1.36-5.37-1.05-7.37.94-2,2.01-2.3,5.04-.95,7.38ZM312.46,477.62l-8.32,8.32c2.34,1.36,5.38,1.07,7.37-.94,2.01-2,2.3-5.04.95-7.38Z"/>
        <path d="M529.43,483.73l8.32-8.32c-2.34-1.36-5.38-1.05-7.38.94-2,2.01-2.3,5.04-.95,7.38ZM539.96,477.62l-8.32,8.32c2.34,1.36,5.38,1.07,7.37-.94,2.01-2,2.3-5.04.95-7.38Z"/>
      </g>
      <g>
        <path d="M301.93,286.73l8.32-8.32c-2.34-1.36-5.37-1.05-7.37.94-2,2.01-2.3,5.04-.95,7.38ZM312.46,280.62l-8.32,8.32c2.34,1.36,5.38,1.07,7.37-.94,2.01-2,2.3-5.04.95-7.38Z"/>
        <path d="M529.43,286.73l8.32-8.32c-2.34-1.36-5.38-1.05-7.38.94-2,2.01-2.3,5.04-.95,7.38ZM539.96,280.62l-8.32,8.32c2.34,1.36,5.38,1.07,7.37-.94,2.01-2,2.3-5.04.95-7.38Z"/>
      </g>
    </g>
  </g>
</svg>